<svg width="219" height="87" viewBox="0 0 219 87" fill="none" xmlns="http://www.w3.org/2000/svg">
<g clip-path="url(#clip0_2_413)">
<rect width="219" height="87" rx="43.5" fill="#FECB69"/>
<path d="M58.3523 39.5C58.1023 38.7348 57.7727 38.0492 57.3636 37.4432C56.9621 36.8295 56.4811 36.3068 55.9205 35.875C55.3674 35.4432 54.7386 35.1136 54.0341 34.8864C53.3295 34.6591 52.5568 34.5455 51.7159 34.5455C50.3371 34.5455 49.0833 34.9015 47.9545 35.6136C46.8258 36.3258 45.928 37.375 45.2614 38.7614C44.5947 40.1477 44.2614 41.8485 44.2614 43.8636C44.2614 45.8788 44.5985 47.5795 45.2727 48.9659C45.947 50.3523 46.8598 51.4015 48.0114 52.1136C49.1629 52.8258 50.4583 53.1818 51.8977 53.1818C53.2311 53.1818 54.4053 52.8977 55.4205 52.3295C56.4432 51.7538 57.2386 50.9432 57.8068 49.8977C58.3826 48.8447 58.6705 47.6061 58.6705 46.1818L59.5341 46.3636H52.5341V43.8636H61.3977V46.3636C61.3977 48.2803 60.9886 49.947 60.1705 51.3636C59.3598 52.7803 58.2386 53.8788 56.8068 54.6591C55.3826 55.4318 53.7462 55.8182 51.8977 55.8182C49.8371 55.8182 48.0265 55.3333 46.4659 54.3636C44.9129 53.3939 43.7008 52.0152 42.8295 50.2273C41.9659 48.4394 41.5341 46.3182 41.5341 43.8636C41.5341 42.0227 41.7803 40.3674 42.2727 38.8977C42.7727 37.4205 43.4773 36.1629 44.3864 35.125C45.2955 34.0871 46.3712 33.2917 47.6136 32.7386C48.8561 32.1856 50.2235 31.9091 51.7159 31.9091C52.9432 31.9091 54.0871 32.0947 55.1477 32.4659C56.2159 32.8295 57.1667 33.3485 58 34.0227C58.8409 34.6894 59.5417 35.4886 60.1023 36.4205C60.6629 37.3447 61.0492 38.3712 61.2614 39.5H58.3523ZM73.179 55.8636C71.4972 55.8636 70.0464 55.4924 68.8267 54.75C67.6146 54 66.679 52.9545 66.0199 51.6136C65.3684 50.2652 65.0426 48.697 65.0426 46.9091C65.0426 45.1212 65.3684 43.5455 66.0199 42.1818C66.679 40.8106 67.5956 39.7424 68.7699 38.9773C69.9517 38.2045 71.3305 37.8182 72.9062 37.8182C73.8153 37.8182 74.7131 37.9697 75.5994 38.2727C76.4858 38.5758 77.2926 39.0682 78.0199 39.75C78.7472 40.4242 79.3267 41.3182 79.7585 42.4318C80.1903 43.5455 80.4062 44.9167 80.4062 46.5455V47.6818H66.9517V45.3636H77.679C77.679 44.3788 77.482 43.5 77.0881 42.7273C76.7017 41.9545 76.1487 41.3447 75.429 40.8977C74.7169 40.4508 73.8759 40.2273 72.9062 40.2273C71.8381 40.2273 70.9138 40.4924 70.1335 41.0227C69.3608 41.5455 68.7661 42.2273 68.3494 43.0682C67.9328 43.9091 67.7244 44.8106 67.7244 45.7727V47.3182C67.7244 48.6364 67.9517 49.7538 68.4062 50.6705C68.8684 51.5795 69.5085 52.2727 70.3267 52.75C71.1449 53.2197 72.0956 53.4545 73.179 53.4545C73.8835 53.4545 74.5199 53.3561 75.0881 53.1591C75.6638 52.9545 76.16 52.6515 76.5767 52.25C76.9934 51.8409 77.3153 51.3333 77.5426 50.7273L80.1335 51.4545C79.8608 52.3333 79.4025 53.1061 78.7585 53.7727C78.1146 54.4318 77.3191 54.947 76.3722 55.3182C75.4252 55.6818 74.3608 55.8636 73.179 55.8636ZM87.1676 45V55.5H84.4858V38.0455H87.0767V40.7727H87.304C87.7131 39.8864 88.3343 39.1742 89.1676 38.6364C90.0009 38.0909 91.0767 37.8182 92.3949 37.8182C93.5767 37.8182 94.6108 38.0606 95.4972 38.5455C96.3835 39.0227 97.0729 39.75 97.5653 40.7273C98.0578 41.697 98.304 42.9242 98.304 44.4091V55.5H95.6222V44.5909C95.6222 43.2197 95.2661 42.1515 94.554 41.3864C93.8419 40.6136 92.8646 40.2273 91.6222 40.2273C90.7661 40.2273 90.0009 40.4129 89.3267 40.7841C88.66 41.1553 88.1335 41.697 87.7472 42.4091C87.3608 43.1212 87.1676 43.9848 87.1676 45ZM110.523 55.8636C108.841 55.8636 107.39 55.4924 106.17 54.75C104.958 54 104.023 52.9545 103.364 51.6136C102.712 50.2652 102.386 48.697 102.386 46.9091C102.386 45.1212 102.712 43.5455 103.364 42.1818C104.023 40.8106 104.939 39.7424 106.114 38.9773C107.295 38.2045 108.674 37.8182 110.25 37.8182C111.159 37.8182 112.057 37.9697 112.943 38.2727C113.83 38.5758 114.636 39.0682 115.364 39.75C116.091 40.4242 116.67 41.3182 117.102 42.4318C117.534 43.5455 117.75 44.9167 117.75 46.5455V47.6818H104.295V45.3636H115.023C115.023 44.3788 114.826 43.5 114.432 42.7273C114.045 41.9545 113.492 41.3447 112.773 40.8977C112.061 40.4508 111.22 40.2273 110.25 40.2273C109.182 40.2273 108.258 40.4924 107.477 41.0227C106.705 41.5455 106.11 42.2273 105.693 43.0682C105.277 43.9091 105.068 44.8106 105.068 45.7727V47.3182C105.068 48.6364 105.295 49.7538 105.75 50.6705C106.212 51.5795 106.852 52.2727 107.67 52.75C108.489 53.2197 109.439 53.4545 110.523 53.4545C111.227 53.4545 111.864 53.3561 112.432 53.1591C113.008 52.9545 113.504 52.6515 113.92 52.25C114.337 51.8409 114.659 51.3333 114.886 50.7273L117.477 51.4545C117.205 52.3333 116.746 53.1061 116.102 53.7727C115.458 54.4318 114.663 54.947 113.716 55.3182C112.769 55.6818 111.705 55.8636 110.523 55.8636ZM121.83 55.5V38.0455H124.42V40.6818H124.602C124.92 39.8182 125.496 39.1174 126.33 38.5795C127.163 38.0417 128.102 37.7727 129.148 37.7727C129.345 37.7727 129.591 37.7765 129.886 37.7841C130.182 37.7917 130.405 37.803 130.557 37.8182V40.5455C130.466 40.5227 130.258 40.4886 129.932 40.4432C129.614 40.3902 129.277 40.3636 128.92 40.3636C128.072 40.3636 127.314 40.5417 126.648 40.8977C125.989 41.2462 125.466 41.7311 125.08 42.3523C124.701 42.9659 124.511 43.6667 124.511 44.4545V55.5H121.83ZM138.872 55.9091C137.766 55.9091 136.762 55.7008 135.861 55.2841C134.959 54.8598 134.243 54.25 133.713 53.4545C133.183 52.6515 132.918 51.6818 132.918 50.5455C132.918 49.5455 133.115 48.7348 133.509 48.1136C133.902 47.4848 134.429 46.9924 135.088 46.6364C135.747 46.2803 136.474 46.0152 137.27 45.8409C138.073 45.6591 138.88 45.5152 139.69 45.4091C140.751 45.2727 141.611 45.1705 142.27 45.1023C142.937 45.0265 143.421 44.9015 143.724 44.7273C144.035 44.553 144.19 44.25 144.19 43.8182V43.7273C144.19 42.6061 143.884 41.7348 143.27 41.1136C142.664 40.4924 141.743 40.1818 140.509 40.1818C139.228 40.1818 138.224 40.4621 137.497 41.0227C136.77 41.5833 136.259 42.1818 135.963 42.8182L133.418 41.9091C133.872 40.8485 134.478 40.0227 135.236 39.4318C136.001 38.8333 136.834 38.4167 137.736 38.1818C138.645 37.9394 139.539 37.8182 140.418 37.8182C140.978 37.8182 141.622 37.8864 142.349 38.0227C143.084 38.1515 143.793 38.4205 144.474 38.8295C145.164 39.2386 145.736 39.8561 146.19 40.6818C146.645 41.5076 146.872 42.6136 146.872 44V55.5H144.19V53.1364H144.054C143.872 53.5152 143.569 53.9205 143.145 54.3523C142.721 54.7841 142.156 55.1515 141.452 55.4545C140.747 55.7576 139.887 55.9091 138.872 55.9091ZM139.281 53.5C140.342 53.5 141.236 53.2917 141.963 52.875C142.698 52.4583 143.251 51.9205 143.622 51.2614C144.001 50.6023 144.19 49.9091 144.19 49.1818V46.7273C144.077 46.8636 143.827 46.9886 143.44 47.1023C143.062 47.2083 142.622 47.303 142.122 47.3864C141.63 47.4621 141.149 47.5303 140.679 47.5909C140.217 47.6439 139.842 47.6894 139.554 47.7273C138.857 47.8182 138.205 47.9659 137.599 48.1705C137.001 48.3674 136.516 48.6667 136.145 49.0682C135.781 49.4621 135.599 50 135.599 50.6818C135.599 51.6136 135.944 52.3182 136.634 52.7955C137.33 53.2652 138.213 53.5 139.281 53.5ZM159.358 38.0455V40.3182H150.312V38.0455H159.358ZM152.949 33.8636H155.631V50.5C155.631 51.2576 155.741 51.8258 155.96 52.2045C156.188 52.5758 156.475 52.8258 156.824 52.9545C157.18 53.0758 157.555 53.1364 157.949 53.1364C158.244 53.1364 158.487 53.1212 158.676 53.0909C158.866 53.053 159.017 53.0227 159.131 53L159.676 55.4091C159.494 55.4773 159.241 55.5455 158.915 55.6136C158.589 55.6894 158.176 55.7273 157.676 55.7273C156.919 55.7273 156.176 55.5644 155.449 55.2386C154.729 54.9129 154.131 54.4167 153.653 53.75C153.184 53.0833 152.949 52.2424 152.949 51.2273V33.8636ZM170.523 55.8636C168.841 55.8636 167.39 55.4924 166.17 54.75C164.958 54 164.023 52.9545 163.364 51.6136C162.712 50.2652 162.386 48.697 162.386 46.9091C162.386 45.1212 162.712 43.5455 163.364 42.1818C164.023 40.8106 164.939 39.7424 166.114 38.9773C167.295 38.2045 168.674 37.8182 170.25 37.8182C171.159 37.8182 172.057 37.9697 172.943 38.2727C173.83 38.5758 174.636 39.0682 175.364 39.75C176.091 40.4242 176.67 41.3182 177.102 42.4318C177.534 43.5455 177.75 44.9167 177.75 46.5455V47.6818H164.295V45.3636H175.023C175.023 44.3788 174.826 43.5 174.432 42.7273C174.045 41.9545 173.492 41.3447 172.773 40.8977C172.061 40.4508 171.22 40.2273 170.25 40.2273C169.182 40.2273 168.258 40.4924 167.477 41.0227C166.705 41.5455 166.11 42.2273 165.693 43.0682C165.277 43.9091 165.068 44.8106 165.068 45.7727V47.3182C165.068 48.6364 165.295 49.7538 165.75 50.6705C166.212 51.5795 166.852 52.2727 167.67 52.75C168.489 53.2197 169.439 53.4545 170.523 53.4545C171.227 53.4545 171.864 53.3561 172.432 53.1591C173.008 52.9545 173.504 52.6515 173.92 52.25C174.337 51.8409 174.659 51.3333 174.886 50.7273L177.477 51.4545C177.205 52.3333 176.746 53.1061 176.102 53.7727C175.458 54.4318 174.663 54.947 173.716 55.3182C172.769 55.6818 171.705 55.8636 170.523 55.8636Z" fill="#21005D"/>
</g>
<defs>
<clipPath id="clip0_2_413">
<rect width="219" height="87" rx="43.5" fill="white"/>
</clipPath>
</defs>
</svg>
