<svg width="387" height="31" viewBox="0 0 387 31" fill="none" xmlns="http://www.w3.org/2000/svg">
<path d="M0.099432 24V0.727272H14.1449V3.22727H2.91761V11.0909H13.4176V13.5909H2.91761V21.5H14.3267V24H0.099432ZM21.5426 13.5V24H18.8608V6.54545H21.4517V9.27273H21.679C22.0881 8.38636 22.7093 7.67424 23.5426 7.13636C24.3759 6.59091 25.4517 6.31818 26.7699 6.31818C27.9517 6.31818 28.9858 6.56061 29.8722 7.04545C30.7585 7.52273 31.4479 8.25 31.9403 9.22727C32.4328 10.197 32.679 11.4242 32.679 12.9091V24H29.9972V13.0909C29.9972 11.7197 29.6411 10.6515 28.929 9.88636C28.2169 9.11364 27.2396 8.72727 25.9972 8.72727C25.1411 8.72727 24.3759 8.91288 23.7017 9.28409C23.035 9.6553 22.5085 10.197 22.1222 10.9091C21.7358 11.6212 21.5426 12.4848 21.5426 13.5ZM45.1705 6.54545V8.81818H36.125V6.54545H45.1705ZM38.7614 2.36364H41.4432V19C41.4432 19.7576 41.553 20.3258 41.7727 20.7045C42 21.0758 42.2879 21.3258 42.6364 21.4545C42.9924 21.5758 43.3674 21.6364 43.7614 21.6364C44.0568 21.6364 44.2992 21.6212 44.4886 21.5909C44.678 21.553 44.8295 21.5227 44.9432 21.5L45.4886 23.9091C45.3068 23.9773 45.053 24.0455 44.7273 24.1136C44.4015 24.1894 43.9886 24.2273 43.4886 24.2273C42.7311 24.2273 41.9886 24.0644 41.2614 23.7386C40.5417 23.4129 39.9432 22.9167 39.4659 22.25C38.9962 21.5833 38.7614 20.7424 38.7614 19.7273V2.36364ZM56.3352 24.3636C54.6534 24.3636 53.2027 23.9924 51.983 23.25C50.7708 22.5 49.8352 21.4545 49.1761 20.1136C48.5246 18.7652 48.1989 17.197 48.1989 15.4091C48.1989 13.6212 48.5246 12.0455 49.1761 10.6818C49.8352 9.31061 50.7519 8.24242 51.9261 7.47727C53.108 6.70455 54.4867 6.31818 56.0625 6.31818C56.9716 6.31818 57.8693 6.4697 58.7557 6.77273C59.642 7.07576 60.4489 7.56818 61.1761 8.25C61.9034 8.92424 62.483 9.81818 62.9148 10.9318C63.3466 12.0455 63.5625 13.4167 63.5625 15.0455V16.1818H50.108V13.8636H60.8352C60.8352 12.8788 60.6383 12 60.2443 11.2273C59.858 10.4545 59.3049 9.8447 58.5852 9.39773C57.8731 8.95076 57.0322 8.72727 56.0625 8.72727C54.9943 8.72727 54.0701 8.99242 53.2898 9.52273C52.517 10.0455 51.9223 10.7273 51.5057 11.5682C51.089 12.4091 50.8807 13.3106 50.8807 14.2727V15.8182C50.8807 17.1364 51.108 18.2538 51.5625 19.1705C52.0246 20.0795 52.6648 20.7727 53.483 21.25C54.3011 21.7197 55.2519 21.9545 56.3352 21.9545C57.0398 21.9545 57.6761 21.8561 58.2443 21.6591C58.8201 21.4545 59.3163 21.1515 59.733 20.75C60.1496 20.3409 60.4716 19.8333 60.6989 19.2273L63.2898 19.9545C63.017 20.8333 62.5587 21.6061 61.9148 22.2727C61.2708 22.9318 60.4754 23.447 59.5284 23.8182C58.5814 24.1818 57.517 24.3636 56.3352 24.3636ZM67.642 24V6.54545H70.233V9.18182H70.4148C70.733 8.31818 71.3087 7.61742 72.142 7.07954C72.9754 6.54167 73.9148 6.27273 74.9602 6.27273C75.1572 6.27273 75.4034 6.27651 75.6989 6.28409C75.9943 6.29167 76.2178 6.30303 76.3693 6.31818V9.04545C76.2784 9.02273 76.0701 8.98864 75.7443 8.94318C75.4261 8.89015 75.089 8.86364 74.733 8.86364C73.8845 8.86364 73.1269 9.04167 72.4602 9.39773C71.8011 9.74621 71.2784 10.2311 70.892 10.8523C70.5133 11.4659 70.3239 12.1667 70.3239 12.9545V24H67.642ZM90.2756 30.5455C89.821 30.5455 89.4157 30.5076 89.0597 30.4318C88.7036 30.3636 88.4574 30.2955 88.321 30.2273L89.0028 27.8636C89.6544 28.0303 90.2301 28.0909 90.7301 28.0455C91.2301 28 91.6733 27.7765 92.0597 27.375C92.4536 26.9811 92.8134 26.3409 93.1392 25.4545L93.6392 24.0909L87.1847 6.54545H90.0938L94.9119 20.4545H95.0938L99.9119 6.54545H102.821L95.4119 26.5455C95.0786 27.447 94.6657 28.1932 94.1733 28.7841C93.6809 29.3826 93.1089 29.8258 92.4574 30.1136C91.8134 30.4015 91.0862 30.5455 90.2756 30.5455ZM112.827 24.3636C111.251 24.3636 109.868 23.9886 108.679 23.2386C107.497 22.4886 106.573 21.4394 105.906 20.0909C105.247 18.7424 104.918 17.1667 104.918 15.3636C104.918 13.5455 105.247 11.9583 105.906 10.6023C106.573 9.24621 107.497 8.19318 108.679 7.44318C109.868 6.69318 111.251 6.31818 112.827 6.31818C114.402 6.31818 115.781 6.69318 116.963 7.44318C118.152 8.19318 119.077 9.24621 119.736 10.6023C120.402 11.9583 120.736 13.5455 120.736 15.3636C120.736 17.1667 120.402 18.7424 119.736 20.0909C119.077 21.4394 118.152 22.4886 116.963 23.2386C115.781 23.9886 114.402 24.3636 112.827 24.3636ZM112.827 21.9545C114.024 21.9545 115.009 21.6477 115.781 21.0341C116.554 20.4205 117.126 19.6136 117.497 18.6136C117.868 17.6136 118.054 16.5303 118.054 15.3636C118.054 14.197 117.868 13.1098 117.497 12.1023C117.126 11.0947 116.554 10.2803 115.781 9.65909C115.009 9.03788 114.024 8.72727 112.827 8.72727C111.63 8.72727 110.645 9.03788 109.872 9.65909C109.099 10.2803 108.527 11.0947 108.156 12.1023C107.785 13.1098 107.599 14.197 107.599 15.3636C107.599 16.5303 107.785 17.6136 108.156 18.6136C108.527 19.6136 109.099 20.4205 109.872 21.0341C110.645 21.6477 111.63 21.9545 112.827 21.9545ZM135.83 16.8636V6.54545H138.511V24H135.83V21.0455H135.648C135.239 21.9318 134.602 22.6856 133.739 23.3068C132.875 23.9205 131.784 24.2273 130.466 24.2273C129.375 24.2273 128.405 23.9886 127.557 23.5114C126.708 23.0265 126.042 22.2992 125.557 21.3295C125.072 20.3523 124.83 19.1212 124.83 17.6364V6.54545H127.511V17.4545C127.511 18.7273 127.867 19.7424 128.58 20.5C129.299 21.2576 130.216 21.6364 131.33 21.6364C131.996 21.6364 132.674 21.4659 133.364 21.125C134.061 20.7841 134.644 20.2614 135.114 19.5568C135.591 18.8523 135.83 17.9545 135.83 16.8636ZM143.423 24V6.54545H146.014V9.18182H146.196C146.514 8.31818 147.09 7.61742 147.923 7.07954C148.757 6.54167 149.696 6.27273 150.741 6.27273C150.938 6.27273 151.185 6.27651 151.48 6.28409C151.776 6.29167 151.999 6.30303 152.151 6.31818V9.04545C152.06 9.02273 151.851 8.98864 151.526 8.94318C151.207 8.89015 150.87 8.86364 150.514 8.86364C149.666 8.86364 148.908 9.04167 148.241 9.39773C147.582 9.74621 147.06 10.2311 146.673 10.8523C146.295 11.4659 146.105 12.1667 146.105 12.9545V24H143.423ZM164.33 30.5455V6.54545H166.92V9.31818H167.239C167.436 9.01515 167.708 8.62879 168.057 8.15909C168.413 7.68182 168.92 7.25758 169.58 6.88636C170.246 6.50758 171.148 6.31818 172.284 6.31818C173.754 6.31818 175.049 6.68561 176.17 7.42045C177.292 8.1553 178.167 9.19697 178.795 10.5455C179.424 11.8939 179.739 13.4848 179.739 15.3182C179.739 17.1667 179.424 18.7689 178.795 20.125C178.167 21.4735 177.295 22.5189 176.182 23.2614C175.068 23.9962 173.784 24.3636 172.33 24.3636C171.208 24.3636 170.311 24.178 169.636 23.8068C168.962 23.428 168.443 23 168.08 22.5227C167.716 22.0379 167.436 21.6364 167.239 21.3182H167.011V30.5455H164.33ZM166.966 15.2727C166.966 16.5909 167.159 17.7538 167.545 18.7614C167.932 19.7614 168.496 20.5455 169.239 21.1136C169.981 21.6742 170.89 21.9545 171.966 21.9545C173.087 21.9545 174.023 21.6591 174.773 21.0682C175.53 20.4697 176.098 19.6667 176.477 18.6591C176.864 17.6439 177.057 16.5152 177.057 15.2727C177.057 14.0455 176.867 12.9394 176.489 11.9545C176.117 10.9621 175.553 10.178 174.795 9.60227C174.045 9.01894 173.102 8.72727 171.966 8.72727C170.875 8.72727 169.958 9.00379 169.216 9.55682C168.473 10.1023 167.913 10.8674 167.534 11.8523C167.155 12.8295 166.966 13.9697 166.966 15.2727ZM183.83 24V6.54545H186.42V9.18182H186.602C186.92 8.31818 187.496 7.61742 188.33 7.07954C189.163 6.54167 190.102 6.27273 191.148 6.27273C191.345 6.27273 191.591 6.27651 191.886 6.28409C192.182 6.29167 192.405 6.30303 192.557 6.31818V9.04545C192.466 9.02273 192.258 8.98864 191.932 8.94318C191.614 8.89015 191.277 8.86364 190.92 8.86364C190.072 8.86364 189.314 9.04167 188.648 9.39773C187.989 9.74621 187.466 10.2311 187.08 10.8523C186.701 11.4659 186.511 12.1667 186.511 12.9545V24H183.83ZM202.295 24.3636C200.72 24.3636 199.337 23.9886 198.148 23.2386C196.966 22.4886 196.042 21.4394 195.375 20.0909C194.716 18.7424 194.386 17.1667 194.386 15.3636C194.386 13.5455 194.716 11.9583 195.375 10.6023C196.042 9.24621 196.966 8.19318 198.148 7.44318C199.337 6.69318 200.72 6.31818 202.295 6.31818C203.871 6.31818 205.25 6.69318 206.432 7.44318C207.621 8.19318 208.545 9.24621 209.205 10.6023C209.871 11.9583 210.205 13.5455 210.205 15.3636C210.205 17.1667 209.871 18.7424 209.205 20.0909C208.545 21.4394 207.621 22.4886 206.432 23.2386C205.25 23.9886 203.871 24.3636 202.295 24.3636ZM202.295 21.9545C203.492 21.9545 204.477 21.6477 205.25 21.0341C206.023 20.4205 206.595 19.6136 206.966 18.6136C207.337 17.6136 207.523 16.5303 207.523 15.3636C207.523 14.197 207.337 13.1098 206.966 12.1023C206.595 11.0947 206.023 10.2803 205.25 9.65909C204.477 9.03788 203.492 8.72727 202.295 8.72727C201.098 8.72727 200.114 9.03788 199.341 9.65909C198.568 10.2803 197.996 11.0947 197.625 12.1023C197.254 13.1098 197.068 14.197 197.068 15.3636C197.068 16.5303 197.254 17.6136 197.625 18.6136C197.996 19.6136 198.568 20.4205 199.341 21.0341C200.114 21.6477 201.098 21.9545 202.295 21.9545ZM214.662 24V0.727272H217.344V9.31818H217.571C217.768 9.01515 218.041 8.62879 218.389 8.15909C218.745 7.68182 219.253 7.25758 219.912 6.88636C220.579 6.50758 221.48 6.31818 222.616 6.31818C224.086 6.31818 225.382 6.68561 226.503 7.42045C227.624 8.1553 228.499 9.19697 229.128 10.5455C229.757 11.8939 230.071 13.4848 230.071 15.3182C230.071 17.1667 229.757 18.7689 229.128 20.125C228.499 21.4735 227.628 22.5189 226.514 23.2614C225.401 23.9962 224.116 24.3636 222.662 24.3636C221.541 24.3636 220.643 24.178 219.969 23.8068C219.295 23.428 218.776 23 218.412 22.5227C218.048 22.0379 217.768 21.6364 217.571 21.3182H217.253V24H214.662ZM217.298 15.2727C217.298 16.5909 217.491 17.7538 217.878 18.7614C218.264 19.7614 218.829 20.5455 219.571 21.1136C220.313 21.6742 221.223 21.9545 222.298 21.9545C223.42 21.9545 224.355 21.6591 225.105 21.0682C225.863 20.4697 226.431 19.6667 226.81 18.6591C227.196 17.6439 227.389 16.5152 227.389 15.2727C227.389 14.0455 227.2 12.9394 226.821 11.9545C226.45 10.9621 225.885 10.178 225.128 9.60227C224.378 9.01894 223.435 8.72727 222.298 8.72727C221.207 8.72727 220.291 9.00379 219.548 9.55682C218.806 10.1023 218.245 10.8674 217.866 11.8523C217.488 12.8295 217.298 13.9697 217.298 15.2727ZM236.855 0.727272V24H234.173V0.727272H236.855ZM249.085 24.3636C247.403 24.3636 245.953 23.9924 244.733 23.25C243.521 22.5 242.585 21.4545 241.926 20.1136C241.275 18.7652 240.949 17.197 240.949 15.4091C240.949 13.6212 241.275 12.0455 241.926 10.6818C242.585 9.31061 243.502 8.24242 244.676 7.47727C245.858 6.70455 247.237 6.31818 248.812 6.31818C249.722 6.31818 250.619 6.4697 251.506 6.77273C252.392 7.07576 253.199 7.56818 253.926 8.25C254.653 8.92424 255.233 9.81818 255.665 10.9318C256.097 12.0455 256.312 13.4167 256.312 15.0455V16.1818H242.858V13.8636H253.585C253.585 12.8788 253.388 12 252.994 11.2273C252.608 10.4545 252.055 9.8447 251.335 9.39773C250.623 8.95076 249.782 8.72727 248.812 8.72727C247.744 8.72727 246.82 8.99242 246.04 9.52273C245.267 10.0455 244.672 10.7273 244.256 11.5682C243.839 12.4091 243.631 13.3106 243.631 14.2727V15.8182C243.631 17.1364 243.858 18.2538 244.312 19.1705C244.775 20.0795 245.415 20.7727 246.233 21.25C247.051 21.7197 248.002 21.9545 249.085 21.9545C249.79 21.9545 250.426 21.8561 250.994 21.6591C251.57 21.4545 252.066 21.1515 252.483 20.75C252.9 20.3409 253.222 19.8333 253.449 19.2273L256.04 19.9545C255.767 20.8333 255.309 21.6061 254.665 22.2727C254.021 22.9318 253.225 23.447 252.278 23.8182C251.331 24.1818 250.267 24.3636 249.085 24.3636ZM260.392 24V6.54545H262.983V9.27273H263.21C263.574 8.34091 264.161 7.61742 264.972 7.10227C265.782 6.57955 266.756 6.31818 267.892 6.31818C269.044 6.31818 270.002 6.57955 270.767 7.10227C271.54 7.61742 272.142 8.34091 272.574 9.27273H272.756C273.203 8.37121 273.873 7.6553 274.767 7.125C275.661 6.58712 276.733 6.31818 277.983 6.31818C279.544 6.31818 280.82 6.80682 281.812 7.78409C282.805 8.75379 283.301 10.2652 283.301 12.3182V24H280.619V12.3182C280.619 11.0303 280.267 10.1098 279.562 9.55682C278.858 9.00379 278.028 8.72727 277.074 8.72727C275.847 8.72727 274.896 9.09848 274.222 9.84091C273.547 10.5758 273.21 11.5076 273.21 12.6364V24H270.483V12.0455C270.483 11.053 270.161 10.2538 269.517 9.64773C268.873 9.03409 268.044 8.72727 267.028 8.72727C266.331 8.72727 265.68 8.91288 265.074 9.28409C264.475 9.6553 263.991 10.1705 263.619 10.8295C263.256 11.4811 263.074 12.2348 263.074 13.0909V24H260.392ZM299.886 13.5V24H297.205V0.727272H299.886V9.27273H300.114C300.523 8.37121 301.136 7.6553 301.955 7.125C302.78 6.58712 303.879 6.31818 305.25 6.31818C306.439 6.31818 307.481 6.55682 308.375 7.03409C309.269 7.50379 309.962 8.22727 310.455 9.20455C310.955 10.1742 311.205 11.4091 311.205 12.9091V24H308.523V13.0909C308.523 11.7045 308.163 10.6326 307.443 9.875C306.731 9.10985 305.742 8.72727 304.477 8.72727C303.598 8.72727 302.811 8.91288 302.114 9.28409C301.424 9.6553 300.879 10.197 300.477 10.9091C300.083 11.6212 299.886 12.4848 299.886 13.5ZM323.429 24.3636C321.747 24.3636 320.296 23.9924 319.077 23.25C317.865 22.5 316.929 21.4545 316.27 20.1136C315.618 18.7652 315.293 17.197 315.293 15.4091C315.293 13.6212 315.618 12.0455 316.27 10.6818C316.929 9.31061 317.846 8.24242 319.02 7.47727C320.202 6.70455 321.58 6.31818 323.156 6.31818C324.065 6.31818 324.963 6.4697 325.849 6.77273C326.736 7.07576 327.543 7.56818 328.27 8.25C328.997 8.92424 329.577 9.81818 330.009 10.9318C330.44 12.0455 330.656 13.4167 330.656 15.0455V16.1818H317.202V13.8636H327.929C327.929 12.8788 327.732 12 327.338 11.2273C326.952 10.4545 326.399 9.8447 325.679 9.39773C324.967 8.95076 324.126 8.72727 323.156 8.72727C322.088 8.72727 321.164 8.99242 320.384 9.52273C319.611 10.0455 319.016 10.7273 318.599 11.5682C318.183 12.4091 317.974 13.3106 317.974 14.2727V15.8182C317.974 17.1364 318.202 18.2538 318.656 19.1705C319.118 20.0795 319.759 20.7727 320.577 21.25C321.395 21.7197 322.346 21.9545 323.429 21.9545C324.134 21.9545 324.77 21.8561 325.338 21.6591C325.914 21.4545 326.41 21.1515 326.827 20.75C327.243 20.3409 327.565 19.8333 327.793 19.2273L330.384 19.9545C330.111 20.8333 329.652 21.6061 329.009 22.2727C328.365 22.9318 327.569 23.447 326.622 23.8182C325.675 24.1818 324.611 24.3636 323.429 24.3636ZM334.736 24V6.54545H337.327V9.18182H337.509C337.827 8.31818 338.402 7.61742 339.236 7.07954C340.069 6.54167 341.009 6.27273 342.054 6.27273C342.251 6.27273 342.497 6.27651 342.793 6.28409C343.088 6.29167 343.312 6.30303 343.463 6.31818V9.04545C343.372 9.02273 343.164 8.98864 342.838 8.94318C342.52 8.89015 342.183 8.86364 341.827 8.86364C340.978 8.86364 340.221 9.04167 339.554 9.39773C338.895 9.74621 338.372 10.2311 337.986 10.8523C337.607 11.4659 337.418 12.1667 337.418 12.9545V24H334.736ZM353.429 24.3636C351.747 24.3636 350.296 23.9924 349.077 23.25C347.865 22.5 346.929 21.4545 346.27 20.1136C345.618 18.7652 345.293 17.197 345.293 15.4091C345.293 13.6212 345.618 12.0455 346.27 10.6818C346.929 9.31061 347.846 8.24242 349.02 7.47727C350.202 6.70455 351.58 6.31818 353.156 6.31818C354.065 6.31818 354.963 6.4697 355.849 6.77273C356.736 7.07576 357.543 7.56818 358.27 8.25C358.997 8.92424 359.577 9.81818 360.009 10.9318C360.44 12.0455 360.656 13.4167 360.656 15.0455V16.1818H347.202V13.8636H357.929C357.929 12.8788 357.732 12 357.338 11.2273C356.952 10.4545 356.399 9.8447 355.679 9.39773C354.967 8.95076 354.126 8.72727 353.156 8.72727C352.088 8.72727 351.164 8.99242 350.384 9.52273C349.611 10.0455 349.016 10.7273 348.599 11.5682C348.183 12.4091 347.974 13.3106 347.974 14.2727V15.8182C347.974 17.1364 348.202 18.2538 348.656 19.1705C349.118 20.0795 349.759 20.7727 350.577 21.25C351.395 21.7197 352.346 21.9545 353.429 21.9545C354.134 21.9545 354.77 21.8561 355.338 21.6591C355.914 21.4545 356.41 21.1515 356.827 20.75C357.243 20.3409 357.565 19.8333 357.793 19.2273L360.384 19.9545C360.111 20.8333 359.652 21.6061 359.009 22.2727C358.365 22.9318 357.569 23.447 356.622 23.8182C355.675 24.1818 354.611 24.3636 353.429 24.3636ZM366.69 24.1818C366.13 24.1818 365.649 23.9811 365.247 23.5795C364.846 23.178 364.645 22.697 364.645 22.1364C364.645 21.5758 364.846 21.0947 365.247 20.6932C365.649 20.2917 366.13 20.0909 366.69 20.0909C367.251 20.0909 367.732 20.2917 368.134 20.6932C368.535 21.0947 368.736 21.5758 368.736 22.1364C368.736 22.5076 368.641 22.8485 368.452 23.1591C368.27 23.4697 368.024 23.7197 367.713 23.9091C367.41 24.0909 367.069 24.1818 366.69 24.1818ZM375.503 24.1818C374.942 24.1818 374.461 23.9811 374.06 23.5795C373.658 23.178 373.457 22.697 373.457 22.1364C373.457 21.5758 373.658 21.0947 374.06 20.6932C374.461 20.2917 374.942 20.0909 375.503 20.0909C376.063 20.0909 376.545 20.2917 376.946 20.6932C377.348 21.0947 377.548 21.5758 377.548 22.1364C377.548 22.5076 377.454 22.8485 377.264 23.1591C377.082 23.4697 376.836 23.7197 376.526 23.9091C376.223 24.0909 375.882 24.1818 375.503 24.1818ZM384.315 24.1818C383.755 24.1818 383.274 23.9811 382.872 23.5795C382.471 23.178 382.27 22.697 382.27 22.1364C382.27 21.5758 382.471 21.0947 382.872 20.6932C383.274 20.2917 383.755 20.0909 384.315 20.0909C384.876 20.0909 385.357 20.2917 385.759 20.6932C386.16 21.0947 386.361 21.5758 386.361 22.1364C386.361 22.5076 386.266 22.8485 386.077 23.1591C385.895 23.4697 385.649 23.7197 385.338 23.9091C385.035 24.0909 384.694 24.1818 384.315 24.1818Z" fill="#5A3F17"/>
</svg>
