<svg width="762" height="44" viewBox="0 0 762 44" fill="none" xmlns="http://www.w3.org/2000/svg">
<path d="M12.26 0.0679977L7.996 30.54H20.684L19.228 36H0.664L5.76 0.0679977H12.26ZM45.6822 14.94C45.6475 18.4413 44.1569 21.0067 41.2102 22.636C38.2635 24.2307 34.3115 25.3053 29.3542 25.86V26.068C29.3542 29.8813 30.8622 31.788 33.8782 31.788C34.9529 31.788 35.9929 31.5973 36.9982 31.216C38.0382 30.8 39.1475 30.176 40.3262 29.344L42.6662 33.244C39.6155 35.6013 36.4089 36.78 33.0462 36.78C29.8222 36.78 27.3262 35.8267 25.5582 33.92C23.8249 32.0133 22.9582 29.344 22.9582 25.912C22.9929 22.9307 23.4955 20.0533 24.4662 17.28C25.4715 14.5067 27.0315 12.236 29.1462 10.468C31.2609 8.66533 33.8955 7.764 37.0502 7.764C39.7889 7.764 41.9035 8.44 43.3942 9.792C44.9195 11.144 45.6822 12.86 45.6822 14.94ZM36.5822 12.34C34.6755 12.34 33.1502 13.224 32.0062 14.992C30.8969 16.76 30.1342 18.9613 29.7182 21.596C33.0115 21.284 35.4382 20.5907 36.9982 19.516C38.5582 18.4413 39.3382 16.968 39.3382 15.096C39.3382 14.264 39.1129 13.6053 38.6622 13.12C38.2462 12.6 37.5529 12.34 36.5822 12.34ZM70.4634 14.94C70.4288 18.4413 68.9381 21.0067 65.9914 22.636C63.0448 24.2307 59.0928 25.3053 54.1354 25.86V26.068C54.1354 29.8813 55.6434 31.788 58.6594 31.788C59.7341 31.788 60.7741 31.5973 61.7794 31.216C62.8194 30.8 63.9288 30.176 65.1074 29.344L67.4474 33.244C64.3968 35.6013 61.1901 36.78 57.8274 36.78C54.6034 36.78 52.1074 35.8267 50.3394 33.92C48.6061 32.0133 47.7394 29.344 47.7394 25.912C47.7741 22.9307 48.2768 20.0533 49.2474 17.28C50.2528 14.5067 51.8128 12.236 53.9274 10.468C56.0421 8.66533 58.6768 7.764 61.8314 7.764C64.5701 7.764 66.6848 8.44 68.1754 9.792C69.7008 11.144 70.4634 12.86 70.4634 14.94ZM61.3634 12.34C59.4568 12.34 57.9314 13.224 56.7874 14.992C55.6781 16.76 54.9154 18.9613 54.4994 21.596C57.7928 21.284 60.2194 20.5907 61.7794 19.516C63.3394 18.4413 64.1194 16.968 64.1194 15.096C64.1194 14.264 63.8941 13.6053 63.4434 13.12C63.0274 12.6 62.3341 12.34 61.3634 12.34ZM80.5722 28.46C80.5375 28.7027 80.5202 29.032 80.5202 29.448C80.5202 30.8693 81.1788 31.58 82.4962 31.58C82.9815 31.58 83.4495 31.5107 83.9002 31.372C84.3508 31.2333 84.9055 31.008 85.5642 30.696L87.2802 34.804C85.3388 36.1213 83.2242 36.78 80.9362 36.78C78.7868 36.78 77.1228 36.208 75.9442 35.064C74.7655 33.8853 74.1762 32.2387 74.1762 30.124C74.1762 29.5347 74.2282 28.928 74.3322 28.304L76.4642 13.12H72.6682L73.3442 8.492H77.3482L78.9602 2.252L84.3162 1.628L83.3802 8.492H89.0482L87.6962 13.12H82.7042L80.5722 28.46Z" fill="black" fill-opacity="0.73"/>
<path d="M108.752 17.02C110.797 17.4707 112.409 18.2507 113.588 19.36C114.801 20.4693 115.408 22.0987 115.408 24.248C115.408 27.784 114.177 30.6267 111.716 32.776C109.254 34.9253 105.441 36 100.276 36H90.3437L95.4397 0.0679977H105.112C108.648 0.0679977 111.438 0.761331 113.484 2.148C115.529 3.5 116.552 5.476 116.552 8.076C116.552 10.468 115.824 12.4267 114.368 13.952C112.946 15.4427 111.074 16.4653 108.752 17.02ZM101.264 4.956L99.8597 14.888H103.396C105.476 14.888 107.07 14.3507 108.18 13.276C109.324 12.1667 109.896 10.6067 109.896 8.596C109.896 6.16933 108.318 4.956 105.164 4.956H101.264ZM100.9 31.008C103.777 31.008 105.788 30.384 106.932 29.136C108.11 27.8533 108.7 26.1373 108.7 23.988C108.7 22.428 108.232 21.3013 107.296 20.608C106.394 19.9147 105.06 19.568 103.292 19.568H99.1837L97.5717 31.008H100.9ZM129.02 36.78C125.866 36.78 123.422 35.8093 121.688 33.868C119.955 31.9267 119.088 29.2227 119.088 25.756C119.088 22.8787 119.556 20.0707 120.492 17.332C121.463 14.5587 122.988 12.2707 125.068 10.468C127.148 8.66533 129.783 7.764 132.972 7.764C136.127 7.764 138.571 8.73466 140.304 10.676C142.038 12.5827 142.904 15.252 142.904 18.684C142.87 21.5613 142.367 24.3867 141.396 27.16C140.46 29.8987 138.952 32.1867 136.872 34.024C134.827 35.8613 132.21 36.78 129.02 36.78ZM129.384 31.892C131.083 31.892 132.452 31.1467 133.492 29.656C134.567 28.1307 135.312 26.328 135.728 24.248C136.179 22.1333 136.422 20.0707 136.456 18.06C136.456 14.42 135.174 12.6 132.608 12.6C130.875 12.6 129.471 13.3627 128.396 14.888C127.356 16.3787 126.611 18.1813 126.16 20.296C125.744 22.376 125.536 24.4213 125.536 26.432C125.536 28.304 125.848 29.6907 126.472 30.592C127.131 31.4587 128.102 31.892 129.384 31.892ZM154.053 28.46C154.018 28.7027 154.001 29.032 154.001 29.448C154.001 30.8693 154.659 31.58 155.977 31.58C156.462 31.58 156.93 31.5107 157.381 31.372C157.831 31.2333 158.386 31.008 159.045 30.696L160.761 34.804C158.819 36.1213 156.705 36.78 154.417 36.78C152.267 36.78 150.603 36.208 149.425 35.064C148.246 33.8853 147.657 32.2387 147.657 30.124C147.657 29.5347 147.709 28.928 147.813 28.304L149.945 13.12H146.149L146.825 8.492H150.829L152.441 2.252L157.797 1.628L156.861 8.492H162.529L161.177 13.12H156.185L154.053 28.46Z" fill="#C89241"/>
<path d="M196.747 37.6C196.021 38.944 195.296 40.0213 194.571 40.832C193.867 41.6427 193.077 42.2293 192.203 42.592C191.349 42.9547 190.336 43.136 189.163 43.136L189.611 40.544C190.357 40.5227 190.987 40.4267 191.499 40.256C192.011 40.0853 192.501 39.744 192.971 39.232C193.461 38.72 193.995 37.9413 194.571 36.896L195.147 35.904L192.299 20.16H194.891L196.235 27.872L196.971 32.736L199.371 27.872L203.307 20.16H206.027L197.611 36L196.747 37.6ZM220.612 27.744L220.356 29.344C220.015 31.6053 219.204 33.3333 217.924 34.528C216.666 35.7227 215.023 36.32 212.996 36.32C211.503 36.32 210.266 35.9787 209.284 35.296C208.324 34.6133 207.652 33.6747 207.268 32.48C206.884 31.2853 206.81 29.9307 207.044 28.416L207.3 26.784C207.663 24.608 208.463 22.912 209.7 21.696C210.959 20.4587 212.612 19.84 214.66 19.84C216.175 19.84 217.412 20.192 218.372 20.896C219.332 21.6 220.004 22.5493 220.388 23.744C220.772 24.9173 220.847 26.2507 220.612 27.744ZM217.892 27.68C218.148 26.08 217.999 24.7787 217.444 23.776C216.89 22.752 215.951 22.24 214.628 22.24C213.391 22.24 212.367 22.6347 211.556 23.424C210.767 24.2133 210.255 25.3333 210.02 26.784L209.764 28.48C209.508 30.1227 209.658 31.4453 210.212 32.448C210.788 33.4507 211.727 33.952 213.028 33.952C214.266 33.952 215.279 33.568 216.068 32.8C216.879 32.0107 217.402 30.8587 217.636 29.344L217.892 27.68ZM233.699 36L234.211 33.12C232.974 34.4213 231.875 35.2853 230.915 35.712C229.977 36.1173 229.123 36.32 228.355 36.32C226.926 36.32 225.881 35.7973 225.219 34.752C224.579 33.7067 224.409 32.3413 224.707 30.656L226.563 20.16H229.187L227.395 30.4C227.182 31.5733 227.225 32.448 227.523 33.024C227.843 33.5787 228.345 33.856 229.027 33.856C229.433 33.856 229.891 33.7707 230.403 33.6C230.915 33.408 231.513 33.056 232.195 32.544C232.878 32.032 233.667 31.296 234.563 30.336L236.355 20.16H238.979L236.195 36H233.699ZM252.534 22.496C252.044 22.496 251.457 22.5813 250.774 22.752C250.092 22.9013 249.356 23.2213 248.566 23.712C247.798 24.2027 247.009 24.9493 246.198 25.952L244.438 36H241.814L244.63 20.16H247.094L246.582 23.136C247.798 21.792 248.95 20.9067 250.038 20.48C251.148 20.0533 252.129 19.84 252.982 19.84L252.534 22.496ZM267.285 36.32C266.56 36.32 265.866 36.2347 265.205 36.064C264.544 35.8933 263.893 35.6587 263.253 35.36L261.941 42.816H259.317L263.349 20.16H265.813L265.301 23.04C266.325 21.8453 267.296 21.0133 268.213 20.544C269.13 20.0747 269.994 19.84 270.805 19.84C271.872 19.84 272.746 20.1707 273.429 20.832C274.112 21.4933 274.581 22.4 274.837 23.552C275.114 24.704 275.146 26.016 274.933 27.488L274.709 29.024C274.368 31.3493 273.568 33.152 272.309 34.432C271.05 35.6907 269.376 36.32 267.285 36.32ZM270.069 22.24C269.408 22.24 268.64 22.5387 267.765 23.136C266.89 23.7333 265.92 24.768 264.853 26.24L263.669 33.024C264.842 33.6427 265.984 33.952 267.093 33.952C268.544 33.952 269.664 33.5147 270.453 32.64C271.264 31.744 271.776 30.5387 271.989 29.024L272.213 27.488C272.448 25.8027 272.384 24.512 272.021 23.616C271.658 22.6987 271.008 22.24 270.069 22.24ZM289.034 22.496C288.544 22.496 287.957 22.5813 287.274 22.752C286.592 22.9013 285.856 23.2213 285.066 23.712C284.298 24.2027 283.509 24.9493 282.698 25.952L280.938 36H278.314L281.13 20.16H283.594L283.082 23.136C284.298 21.792 285.45 20.9067 286.538 20.48C287.648 20.0533 288.629 19.84 289.482 19.84L289.034 22.496ZM304.112 27.744L303.856 29.344C303.515 31.6053 302.704 33.3333 301.424 34.528C300.166 35.7227 298.523 36.32 296.496 36.32C295.003 36.32 293.766 35.9787 292.784 35.296C291.824 34.6133 291.152 33.6747 290.768 32.48C290.384 31.2853 290.31 29.9307 290.544 28.416L290.8 26.784C291.163 24.608 291.963 22.912 293.2 21.696C294.459 20.4587 296.112 19.84 298.16 19.84C299.675 19.84 300.912 20.192 301.872 20.896C302.832 21.6 303.504 22.5493 303.888 23.744C304.272 24.9173 304.347 26.2507 304.112 27.744ZM301.392 27.68C301.648 26.08 301.499 24.7787 300.944 23.776C300.39 22.752 299.451 22.24 298.128 22.24C296.891 22.24 295.867 22.6347 295.056 23.424C294.267 24.2133 293.755 25.3333 293.52 26.784L293.264 28.48C293.008 30.1227 293.158 31.4453 293.712 32.448C294.288 33.4507 295.227 33.952 296.528 33.952C297.766 33.952 298.779 33.568 299.568 32.8C300.379 32.0107 300.902 30.8587 301.136 29.344L301.392 27.68ZM321.487 29.024C321.146 31.3493 320.346 33.152 319.087 34.432C317.85 35.6907 316.175 36.32 314.063 36.32C312.911 36.32 311.802 36.1387 310.735 35.776C309.69 35.392 308.655 34.9013 307.631 34.304L311.535 12.32H314.159L312.303 22.784C313.285 21.6747 314.213 20.9067 315.087 20.48C315.983 20.0533 316.826 19.84 317.615 19.84C318.682 19.84 319.557 20.1707 320.239 20.832C320.922 21.4933 321.391 22.4 321.647 23.552C321.925 24.704 321.946 26.016 321.711 27.488L321.487 29.024ZM316.879 22.24C316.218 22.24 315.45 22.5387 314.575 23.136C313.701 23.712 312.741 24.736 311.695 26.208L310.511 33.056C311.685 33.6533 312.815 33.952 313.903 33.952C315.354 33.952 316.474 33.5147 317.263 32.64C318.053 31.744 318.554 30.5387 318.767 29.024L318.991 27.488C319.247 25.8027 319.183 24.512 318.799 23.616C318.437 22.6987 317.797 22.24 316.879 22.24ZM325.799 32L329.255 12.32H331.879L328.423 32.032C328.337 32.6293 328.348 33.0667 328.455 33.344C328.583 33.6213 328.945 33.76 329.543 33.76H330.023L329.575 36.16H329.031C327.559 36.16 326.599 35.776 326.151 35.008C325.703 34.2187 325.585 33.216 325.799 32ZM345.244 35.36C344.327 35.7013 343.442 35.9467 342.588 36.096C341.735 36.2453 340.924 36.32 340.156 36.32C338.45 36.32 337.106 35.9787 336.124 35.296C335.164 34.592 334.524 33.6427 334.204 32.448C333.884 31.2533 333.842 29.9093 334.076 28.416L334.364 26.784C334.706 24.6933 335.506 23.0187 336.764 21.76C338.044 20.48 339.655 19.84 341.596 19.84C342.556 19.84 343.452 20.0107 344.284 20.352C345.138 20.6933 345.82 21.2267 346.332 21.952C346.844 22.6773 347.1 23.6053 347.1 24.736C347.1 25.3547 347.004 26.016 346.812 26.72C346.642 27.4027 346.311 28.1493 345.82 28.96H336.572C336.38 30.432 336.551 31.6373 337.084 32.576C337.618 33.4933 338.716 33.952 340.38 33.952C340.978 33.952 341.66 33.888 342.428 33.76C343.196 33.6107 343.996 33.3973 344.828 33.12L345.244 35.36ZM341.5 22.176C340.284 22.176 339.282 22.5813 338.492 23.392C337.703 24.1813 337.191 25.2907 336.956 26.72H344.124C344.295 26.3573 344.402 26.016 344.444 25.696C344.508 25.376 344.54 25.0773 344.54 24.8C344.54 23.904 344.252 23.2427 343.676 22.816C343.1 22.3893 342.375 22.176 341.5 22.176ZM359.705 22.304C359.107 22.304 358.361 22.5387 357.465 23.008C356.59 23.456 355.481 24.4053 354.137 25.856L352.345 36H349.721L352.536 20.16H355.001L354.521 23.04C355.758 21.7387 356.857 20.8853 357.817 20.48C358.777 20.0533 359.641 19.84 360.409 19.84C361.454 19.84 362.297 20.1387 362.937 20.736C363.577 21.3333 363.971 22.144 364.121 23.168C365.379 21.824 366.521 20.9387 367.545 20.512C368.569 20.064 369.475 19.84 370.265 19.84C371.694 19.84 372.729 20.3627 373.369 21.408C374.03 22.4533 374.211 23.8293 373.913 25.536L372.057 36H369.433L371.257 25.76C371.47 24.608 371.417 23.744 371.097 23.168C370.777 22.592 370.265 22.304 369.561 22.304C369.177 22.304 368.718 22.4 368.185 22.592C367.673 22.784 367.075 23.136 366.392 23.648C365.71 24.1387 364.91 24.8747 363.993 25.856L362.201 36H359.577L361.369 25.76C361.582 24.608 361.529 23.744 361.209 23.168C360.91 22.592 360.409 22.304 359.705 22.304ZM377.857 27.456L378.273 25.152H387.233L386.817 27.456H377.857ZM394.164 33.984C395.401 33.984 396.287 33.7707 396.82 33.344C397.375 32.9173 397.652 32.3627 397.652 31.68C397.652 31.1253 397.481 30.6773 397.14 30.336C396.799 29.9947 396.223 29.6747 395.412 29.376L393.876 28.768C392.788 28.3627 391.967 27.8187 391.412 27.136C390.879 26.4533 390.612 25.5893 390.612 24.544C390.612 23.6907 390.793 22.912 391.156 22.208C391.54 21.504 392.148 20.9387 392.98 20.512C393.812 20.064 394.9 19.84 396.244 19.84C397.887 19.84 399.551 20.224 401.236 20.992L400.404 23.232C399.636 22.8693 398.911 22.6133 398.228 22.464C397.545 22.2933 396.863 22.208 396.18 22.208C395.135 22.208 394.377 22.4 393.908 22.784C393.46 23.168 393.236 23.6907 393.236 24.352C393.236 24.8213 393.375 25.2267 393.652 25.568C393.951 25.9093 394.452 26.2187 395.156 26.496L396.724 27.072C397.897 27.4987 398.783 28.0533 399.38 28.736C399.977 29.4187 400.276 30.304 400.276 31.392C400.276 32.224 400.073 33.024 399.668 33.792C399.263 34.5387 398.601 35.1467 397.684 35.616C396.788 36.0853 395.593 36.32 394.1 36.32C392.329 36.32 390.548 35.9253 388.756 35.136L389.588 32.928C390.42 33.2907 391.209 33.5573 391.956 33.728C392.703 33.8987 393.439 33.984 394.164 33.984ZM417.8 27.744L417.544 29.344C417.202 31.6053 416.392 33.3333 415.112 34.528C413.853 35.7227 412.21 36.32 410.184 36.32C408.69 36.32 407.453 35.9787 406.472 35.296C405.512 34.6133 404.84 33.6747 404.456 32.48C404.072 31.2853 403.997 29.9307 404.232 28.416L404.488 26.784C404.85 24.608 405.65 22.912 406.888 21.696C408.146 20.4587 409.8 19.84 411.848 19.84C413.362 19.84 414.6 20.192 415.56 20.896C416.52 21.6 417.192 22.5493 417.576 23.744C417.96 24.9173 418.034 26.2507 417.8 27.744ZM415.08 27.68C415.336 26.08 415.186 24.7787 414.632 23.776C414.077 22.752 413.138 22.24 411.816 22.24C410.578 22.24 409.554 22.6347 408.744 23.424C407.954 24.2133 407.442 25.3333 407.208 26.784L406.952 28.48C406.696 30.1227 406.845 31.4453 407.4 32.448C407.976 33.4507 408.914 33.952 410.216 33.952C411.453 33.952 412.466 33.568 413.256 32.8C414.066 32.0107 414.589 30.8587 414.824 29.344L415.08 27.68ZM421.799 32L425.255 12.32H427.879L424.423 32.032C424.337 32.6293 424.348 33.0667 424.455 33.344C424.583 33.6213 424.945 33.76 425.543 33.76H426.023L425.575 36.16H425.031C423.559 36.16 422.599 35.776 422.151 35.008C421.703 34.2187 421.585 33.216 421.799 32ZM443.932 20.16L435.548 36H433.116L430.236 20.16H432.796L434.108 27.872L434.844 32.768L437.308 27.872L441.244 20.16H443.932ZM456.182 35.36C455.264 35.7013 454.379 35.9467 453.526 36.096C452.672 36.2453 451.862 36.32 451.094 36.32C449.387 36.32 448.043 35.9787 447.062 35.296C446.102 34.592 445.462 33.6427 445.142 32.448C444.822 31.2533 444.779 29.9093 445.014 28.416L445.302 26.784C445.643 24.6933 446.443 23.0187 447.702 21.76C448.982 20.48 450.592 19.84 452.534 19.84C453.494 19.84 454.39 20.0107 455.222 20.352C456.075 20.6933 456.758 21.2267 457.27 21.952C457.782 22.6773 458.038 23.6053 458.038 24.736C458.038 25.3547 457.942 26.016 457.75 26.72C457.579 27.4027 457.248 28.1493 456.758 28.96H447.51C447.318 30.432 447.488 31.6373 448.022 32.576C448.555 33.4933 449.654 33.952 451.318 33.952C451.915 33.952 452.598 33.888 453.366 33.76C454.134 33.6107 454.934 33.3973 455.766 33.12L456.182 35.36ZM452.438 22.176C451.222 22.176 450.219 22.5813 449.43 23.392C448.64 24.1813 448.128 25.2907 447.894 26.72H455.062C455.232 26.3573 455.339 26.016 455.382 25.696C455.446 25.376 455.478 25.0773 455.478 24.8C455.478 23.904 455.19 23.2427 454.614 22.816C454.038 22.3893 453.312 22.176 452.438 22.176ZM471.378 22.496C470.887 22.496 470.301 22.5813 469.618 22.752C468.935 22.9013 468.199 23.2213 467.41 23.712C466.642 24.2027 465.853 24.9493 465.042 25.952L463.282 36H460.658L463.474 20.16H465.938L465.426 23.136C466.642 21.792 467.794 20.9067 468.882 20.48C469.991 20.0533 470.973 19.84 471.826 19.84L471.378 22.496ZM487.281 22.272C486.107 22.272 485.126 22.6667 484.337 23.456C483.547 24.224 483.035 25.3333 482.801 26.784L482.513 28.512C482.257 30.0907 482.353 31.392 482.801 32.416C483.27 33.4187 484.273 33.92 485.809 33.92C486.939 33.92 488.23 33.6533 489.681 33.12L490.129 35.392C488.443 36.0107 486.929 36.32 485.585 36.32C484.006 36.32 482.758 35.9787 481.841 35.296C480.923 34.592 480.315 33.6427 480.017 32.448C479.718 31.2533 479.686 29.9093 479.921 28.416L480.177 26.784C480.539 24.6293 481.329 22.9333 482.545 21.696C483.782 20.4587 485.339 19.84 487.217 19.84C487.985 19.84 488.763 19.9467 489.553 20.16C490.342 20.3733 491.131 20.672 491.921 21.056L490.993 23.296C490.331 22.976 489.681 22.7307 489.041 22.56C488.422 22.368 487.835 22.272 487.281 22.272ZM503.958 22.304C503.553 22.304 503.073 22.4 502.518 22.592C501.985 22.7627 501.366 23.104 500.662 23.616C499.958 24.128 499.148 24.8747 498.23 25.856L496.438 36H493.814L497.974 12.32H500.598L498.742 22.912C499.958 21.6533 501.046 20.832 502.006 20.448C502.988 20.0427 503.873 19.84 504.662 19.84C506.134 19.84 507.212 20.3627 507.894 21.408C508.577 22.4533 508.769 23.8293 508.47 25.536L506.614 36H503.99L505.782 25.76C506.017 24.608 505.964 23.744 505.622 23.168C505.302 22.592 504.748 22.304 503.958 22.304ZM525.28 36.16C524.234 36.16 523.456 35.904 522.944 35.392C522.453 34.8587 522.186 34.1973 522.144 33.408C521.141 34.496 520.181 35.2533 519.264 35.68C518.346 36.1067 517.482 36.32 516.672 36.32C515.626 36.32 514.762 35.9893 514.08 35.328C513.418 34.6667 512.96 33.76 512.704 32.608C512.448 31.456 512.426 30.1547 512.64 28.704L512.864 27.136C513.205 24.8533 514.005 23.072 515.264 21.792C516.522 20.4907 518.176 19.84 520.224 19.84C521.29 19.84 522.346 20.0213 523.392 20.384C524.458 20.7253 525.482 21.216 526.464 21.856L524.736 31.68C524.629 32.32 524.65 32.832 524.8 33.216C524.949 33.5787 525.29 33.76 525.824 33.76H526.272L525.824 36.16H525.28ZM515.36 28.704C515.125 30.3893 515.189 31.6907 515.552 32.608C515.914 33.504 516.522 33.952 517.376 33.952C518.016 33.952 518.762 33.6747 519.616 33.12C520.469 32.5653 521.386 31.5947 522.368 30.208L523.616 23.104C522.464 22.528 521.386 22.24 520.384 22.24C518.997 22.24 517.898 22.6987 517.088 23.616C516.298 24.512 515.797 25.6853 515.584 27.136L515.36 28.704ZM538.522 35.456C537.157 36.032 535.866 36.32 534.65 36.32C533.562 36.32 532.719 36.0853 532.122 35.616C531.525 35.1253 531.141 34.496 530.97 33.728C530.799 32.96 530.789 32.1387 530.938 31.264L532.474 22.464H529.722L530.106 20.16H532.89L533.658 15.744H536.282L535.514 20.16H540.698L540.282 22.464H535.098L533.53 31.264C533.359 32.2453 533.434 32.9387 533.754 33.344C534.074 33.728 534.543 33.92 535.162 33.92C535.503 33.92 535.909 33.8773 536.378 33.792C536.869 33.6853 537.391 33.504 537.946 33.248L538.522 35.456ZM555.925 29.024C555.583 31.3493 554.783 33.152 553.525 34.432C552.287 35.6907 550.613 36.32 548.501 36.32C547.349 36.32 546.239 36.1387 545.173 35.776C544.127 35.392 543.093 34.9013 542.069 34.304L545.973 12.32H548.597L546.741 22.784C547.722 21.6747 548.65 20.9067 549.525 20.48C550.421 20.0533 551.263 19.84 552.053 19.84C553.119 19.84 553.994 20.1707 554.677 20.832C555.359 21.4933 555.829 22.4 556.085 23.552C556.362 24.704 556.383 26.016 556.149 27.488L555.925 29.024ZM551.317 22.24C550.655 22.24 549.887 22.5387 549.013 23.136C548.138 23.712 547.178 24.736 546.133 26.208L544.949 33.056C546.122 33.6533 547.253 33.952 548.341 33.952C549.791 33.952 550.911 33.5147 551.701 32.64C552.49 31.744 552.991 30.5387 553.205 29.024L553.429 27.488C553.685 25.8027 553.621 24.512 553.237 23.616C552.874 22.6987 552.234 22.24 551.317 22.24ZM573.612 27.744L573.356 29.344C573.015 31.6053 572.204 33.3333 570.924 34.528C569.666 35.7227 568.023 36.32 565.996 36.32C564.503 36.32 563.266 35.9787 562.284 35.296C561.324 34.6133 560.652 33.6747 560.268 32.48C559.884 31.2853 559.81 29.9307 560.044 28.416L560.3 26.784C560.663 24.608 561.463 22.912 562.7 21.696C563.959 20.4587 565.612 19.84 567.66 19.84C569.175 19.84 570.412 20.192 571.372 20.896C572.332 21.6 573.004 22.5493 573.388 23.744C573.772 24.9173 573.847 26.2507 573.612 27.744ZM570.892 27.68C571.148 26.08 570.999 24.7787 570.444 23.776C569.89 22.752 568.951 22.24 567.628 22.24C566.391 22.24 565.367 22.6347 564.556 23.424C563.767 24.2133 563.255 25.3333 563.02 26.784L562.764 28.48C562.508 30.1227 562.658 31.4453 563.212 32.448C563.788 33.4507 564.727 33.952 566.028 33.952C567.266 33.952 568.279 33.568 569.068 32.8C569.879 32.0107 570.402 30.8587 570.636 29.344L570.892 27.68ZM585.803 35.456C584.438 36.032 583.147 36.32 581.931 36.32C580.843 36.32 580.001 36.0853 579.403 35.616C578.806 35.1253 578.422 34.496 578.251 33.728C578.081 32.96 578.07 32.1387 578.219 31.264L579.755 22.464H577.003L577.387 20.16H580.171L580.939 15.744H583.563L582.795 20.16H587.979L587.563 22.464H582.379L580.811 31.264C580.641 32.2453 580.715 32.9387 581.035 33.344C581.355 33.728 581.825 33.92 582.443 33.92C582.785 33.92 583.19 33.8773 583.659 33.792C584.15 33.6853 584.673 33.504 585.227 33.248L585.803 35.456ZM606.847 22.464H601.663L599.263 36H596.639L599.039 22.464H596.287L596.671 20.16H599.455L599.903 17.536C600.095 16.4693 600.415 15.52 600.863 14.688C601.311 13.856 601.929 13.2053 602.719 12.736C603.529 12.2453 604.553 12 605.791 12C606.473 12 607.135 12.0853 607.775 12.256C608.436 12.4053 609.055 12.6293 609.631 12.928L608.607 15.04C607.583 14.6133 606.687 14.4 605.919 14.4C605.001 14.4 604.255 14.6453 603.679 15.136C603.103 15.6267 602.719 16.416 602.527 17.504L602.047 20.16H607.263L606.847 22.464ZM621.269 27.744L621.013 29.344C620.671 31.6053 619.861 33.3333 618.581 34.528C617.322 35.7227 615.679 36.32 613.653 36.32C612.159 36.32 610.922 35.9787 609.941 35.296C608.981 34.6133 608.309 33.6747 607.924 32.48C607.541 31.2853 607.466 29.9307 607.701 28.416L607.957 26.784C608.319 24.608 609.119 22.912 610.357 21.696C611.615 20.4587 613.269 19.84 615.317 19.84C616.831 19.84 618.069 20.192 619.029 20.896C619.989 21.6 620.661 22.5493 621.045 23.744C621.429 24.9173 621.503 26.2507 621.269 27.744ZM618.549 27.68C618.805 26.08 618.655 24.7787 618.101 23.776C617.546 22.752 616.607 22.24 615.285 22.24C614.047 22.24 613.023 22.6347 612.213 23.424C611.423 24.2133 610.911 25.3333 610.677 26.784L610.421 28.48C610.165 30.1227 610.314 31.4453 610.869 32.448C611.445 33.4507 612.383 33.952 613.685 33.952C614.922 33.952 615.935 33.568 616.725 32.8C617.535 32.0107 618.058 30.8587 618.293 29.344L618.549 27.68ZM635.316 22.496C634.825 22.496 634.238 22.5813 633.556 22.752C632.873 22.9013 632.137 23.2213 631.348 23.712C630.58 24.2027 629.79 24.9493 628.98 25.952L627.22 36H624.596L627.411 20.16H629.876L629.364 23.136C630.58 21.792 631.732 20.9067 632.82 20.48C633.929 20.0533 634.91 19.84 635.764 19.84L635.316 22.496ZM655.062 35.9219H654.828C654.818 35.9219 654.776 35.9271 654.703 35.9375C654.641 35.9479 654.562 35.9583 654.469 35.9688C654.385 35.9688 654.307 35.974 654.234 35.9844C654.161 35.9948 654.115 36 654.094 36C654.083 36 654.026 36 653.922 36C653.818 36.0104 653.693 36.0156 653.547 36.0156C653.401 36.0156 653.25 36.0156 653.094 36.0156C652.948 36.026 652.823 36.0312 652.719 36.0312H651.5C650.979 36.0312 650.458 36.026 649.938 36.0156C649.417 36.0052 648.891 35.974 648.359 35.9219C648.349 35.9219 648.312 35.9167 648.25 35.9062C648.198 35.8854 648.135 35.8698 648.062 35.8594C648 35.8385 647.938 35.8229 647.875 35.8125C647.823 35.7917 647.786 35.7812 647.766 35.7812H647.141H646.469C646.458 35.7812 646.422 35.7917 646.359 35.8125C646.307 35.8229 646.245 35.8385 646.172 35.8594C646.109 35.8698 646.047 35.8854 645.984 35.9062C645.932 35.9167 645.896 35.9219 645.875 35.9219C645.198 35.9427 644.516 35.9688 643.828 36C643.141 36.0208 642.453 36.0312 641.766 36.0312C641.734 36.0312 641.688 36.026 641.625 36.0156C641.552 36.0156 641.474 36.0156 641.391 36.0156C641.307 36.0156 641.224 36.0104 641.141 36C641.057 36 640.995 36 640.953 36C640.953 36.0208 640.927 36.0156 640.875 35.9844C640.823 35.9427 640.786 35.9219 640.766 35.9219L640.734 35.7969C640.724 35.7656 640.719 35.7344 640.719 35.7031C640.719 35.6719 640.719 35.6458 640.719 35.625C640.719 35.5833 640.724 35.5469 640.734 35.5156C640.745 35.4844 640.755 35.4583 640.766 35.4375C640.776 35.4062 640.807 35.3646 640.859 35.3125C640.901 35.2604 640.953 35.2083 641.016 35.1562C641.078 35.1042 641.141 35.0573 641.203 35.0156C641.266 34.974 641.307 34.9531 641.328 34.9531C641.339 34.9531 641.375 34.9479 641.438 34.9375C641.49 34.9167 641.552 34.901 641.625 34.8906C641.688 34.8698 641.75 34.8542 641.812 34.8438C641.865 34.8229 641.906 34.8125 641.938 34.8125C642.219 34.7708 642.49 34.7448 642.75 34.7344C643.01 34.724 643.255 34.6979 643.484 34.6562C643.714 34.6042 643.927 34.5208 644.125 34.4062C644.323 34.2812 644.5 34.0938 644.656 33.8438C644.667 33.8438 644.682 33.8229 644.703 33.7812C644.724 33.7292 644.74 33.6771 644.75 33.625C644.771 33.5625 644.786 33.5104 644.797 33.4688C644.807 33.4167 644.818 33.3854 644.828 33.375C644.911 33.1042 645 32.8281 645.094 32.5469C645.188 32.2552 645.297 31.974 645.422 31.7031C645.422 31.6719 645.432 31.6198 645.453 31.5469C645.484 31.4635 645.5 31.4062 645.5 31.375C645.594 31.1042 645.682 30.8958 645.766 30.75C645.859 30.5938 645.943 30.3958 646.016 30.1562C646.109 29.7917 646.188 29.3958 646.25 28.9688C646.323 28.5417 646.432 28.1458 646.578 27.7812C646.578 27.7604 646.589 27.7292 646.609 27.6875C646.641 27.6354 646.672 27.5833 646.703 27.5312C646.734 27.4792 646.766 27.4323 646.797 27.3906C646.828 27.3385 646.844 27.3073 646.844 27.2969C646.854 27.276 646.875 27.2188 646.906 27.125C646.948 27.0312 646.984 26.9323 647.016 26.8281C647.057 26.7135 647.089 26.6094 647.109 26.5156C647.141 26.4219 647.161 26.3594 647.172 26.3281C647.193 26.3073 647.24 26.25 647.312 26.1562C647.385 26.0625 647.427 25.9896 647.438 25.9375C647.458 25.9375 647.479 25.9115 647.5 25.8594C647.531 25.8073 647.547 25.7708 647.547 25.75V25.1562C647.578 25.0208 647.625 24.8906 647.688 24.7656C647.76 24.6406 647.833 24.5156 647.906 24.3906C647.979 24.2552 648.047 24.125 648.109 24C648.172 23.8646 648.219 23.7292 648.25 23.5938C648.25 23.5729 648.255 23.5104 648.266 23.4062C648.276 23.3021 648.286 23.1927 648.297 23.0781C648.307 22.9531 648.318 22.8385 648.328 22.7344C648.349 22.6198 648.359 22.5521 648.359 22.5312C648.37 22.5104 648.391 22.4635 648.422 22.3906C648.464 22.3177 648.505 22.2448 648.547 22.1719C648.589 22.0885 648.625 22.0156 648.656 21.9531C648.698 21.8802 648.724 21.8333 648.734 21.8125C648.745 21.8021 648.755 21.7552 648.766 21.6719C648.776 21.5885 648.786 21.5 648.797 21.4062C648.807 21.3021 648.818 21.2083 648.828 21.125C648.839 21.0417 648.844 20.9896 648.844 20.9688C648.875 20.8958 648.911 20.8333 648.953 20.7812C648.984 20.7292 649.016 20.6823 649.047 20.6406C649.078 20.5885 649.104 20.5469 649.125 20.5156C649.188 20.3802 649.234 20.2656 649.266 20.1719C649.307 20.0677 649.339 19.9688 649.359 19.875C649.391 19.7812 649.417 19.6823 649.438 19.5781C649.458 19.4635 649.495 19.3333 649.547 19.1875C649.568 19.1667 649.599 19.1198 649.641 19.0469C649.682 18.974 649.724 18.901 649.766 18.8281C649.807 18.7448 649.844 18.6719 649.875 18.6094C649.906 18.5365 649.927 18.4948 649.938 18.4844C650.031 18.2448 650.12 18.0052 650.203 17.7656C650.297 17.526 650.37 17.2865 650.422 17.0469C650.422 17.0365 650.427 16.9948 650.438 16.9219C650.448 16.849 650.458 16.7708 650.469 16.6875C650.479 16.6042 650.49 16.526 650.5 16.4531C650.51 16.3698 650.521 16.3177 650.531 16.2969C650.573 16.1615 650.63 16.0365 650.703 15.9219C650.786 15.8073 650.865 15.6927 650.938 15.5781C651.021 15.4531 651.094 15.3229 651.156 15.1875C651.219 15.0521 651.25 14.8958 651.25 14.7188C651.25 14.5833 651.224 14.4323 651.172 14.2656C651.13 14.099 651.052 13.9896 650.938 13.9375C650.906 13.9271 650.807 13.9115 650.641 13.8906C650.484 13.8698 650.375 13.849 650.312 13.8281H650.172C650.161 13.8281 650.13 13.8229 650.078 13.8125C650.036 13.8021 649.99 13.7917 649.938 13.7812C649.885 13.7604 649.833 13.7448 649.781 13.7344C649.74 13.7135 649.719 13.7031 649.719 13.7031H648.25C648.135 13.6615 648.068 13.6094 648.047 13.5469C648.026 13.474 648.016 13.3906 648.016 13.2969C648.016 13.1302 648.089 13.0052 648.234 12.9219C648.391 12.8281 648.568 12.7604 648.766 12.7188C648.974 12.6771 649.177 12.651 649.375 12.6406C649.583 12.6302 649.734 12.625 649.828 12.625C650.224 12.625 650.62 12.6458 651.016 12.6875C651.411 12.7292 651.807 12.75 652.203 12.75C652.578 12.75 652.958 12.7448 653.344 12.7344C653.729 12.7135 654.104 12.6771 654.469 12.625C654.49 12.625 654.547 12.6094 654.641 12.5781C654.745 12.5469 654.807 12.5312 654.828 12.5312C655.13 12.4375 655.427 12.3698 655.719 12.3281C656.021 12.2865 656.328 12.2656 656.641 12.2656C656.734 12.2656 656.854 12.2708 657 12.2812C657.146 12.2812 657.286 12.2969 657.422 12.3281C657.568 12.349 657.688 12.3906 657.781 12.4531C657.885 12.5156 657.938 12.599 657.938 12.7031C657.938 12.7135 657.917 12.7604 657.875 12.8438C657.844 12.9167 657.797 12.9948 657.734 13.0781C657.682 13.1615 657.63 13.2396 657.578 13.3125C657.526 13.3854 657.484 13.4219 657.453 13.4219C657.359 13.4427 657.203 13.4688 656.984 13.5C656.776 13.5208 656.547 13.5469 656.297 13.5781C656.057 13.6094 655.828 13.6354 655.609 13.6562C655.391 13.6771 655.234 13.6927 655.141 13.7031C655.099 13.7031 655.036 13.7188 654.953 13.75C654.88 13.7812 654.802 13.8177 654.719 13.8594C654.635 13.8906 654.557 13.9271 654.484 13.9688C654.411 14 654.365 14.026 654.344 14.0469C654.344 14.0677 654.323 14.1094 654.281 14.1719C654.25 14.2344 654.234 14.276 654.234 14.2969C654.214 14.3594 654.182 14.4479 654.141 14.5625C654.099 14.6667 654.057 14.776 654.016 14.8906C653.984 15.0052 653.948 15.1094 653.906 15.2031C653.875 15.2969 653.854 15.3542 653.844 15.375C653.844 15.3958 653.839 15.4427 653.828 15.5156C653.818 15.5885 653.807 15.6667 653.797 15.75C653.786 15.8229 653.776 15.8958 653.766 15.9688C653.755 16.0312 653.75 16.0677 653.75 16.0781C653.75 16.1094 653.729 16.1667 653.688 16.25C653.656 16.3333 653.615 16.4219 653.562 16.5156C653.521 16.599 653.479 16.6823 653.438 16.7656C653.406 16.8385 653.391 16.8958 653.391 16.9375V17.2656C653.349 17.5052 653.281 17.7448 653.188 17.9844C653.094 18.224 653.047 18.4635 653.047 18.7031V18.8594C653.016 18.901 652.969 18.9792 652.906 19.0938C652.854 19.1979 652.797 19.3125 652.734 19.4375C652.672 19.5625 652.609 19.6823 652.547 19.7969C652.495 19.901 652.458 19.9688 652.438 20C652.427 20.0312 652.417 20.0938 652.406 20.1875C652.396 20.2812 652.385 20.3802 652.375 20.4844C652.365 20.5885 652.354 20.6875 652.344 20.7812C652.344 20.875 652.344 20.9375 652.344 20.9688C652.26 21.2708 652.156 21.5573 652.031 21.8281C651.917 22.099 651.818 22.3646 651.734 22.625C651.693 22.75 651.651 22.8958 651.609 23.0625C651.578 23.2292 651.542 23.401 651.5 23.5781C651.458 23.7448 651.411 23.9062 651.359 24.0625C651.318 24.2188 651.276 24.349 651.234 24.4531C651.224 24.474 651.193 24.5312 651.141 24.625C651.099 24.7083 651.052 24.8073 651 24.9219C650.948 25.026 650.901 25.125 650.859 25.2188C650.818 25.3125 650.797 25.375 650.797 25.4062C650.786 25.4167 650.771 25.4583 650.75 25.5312C650.74 25.5938 650.724 25.6667 650.703 25.75C650.693 25.8333 650.677 25.9115 650.656 25.9844C650.635 26.0573 650.62 26.1094 650.609 26.1406C650.609 26.151 650.594 26.1927 650.562 26.2656C650.542 26.3281 650.51 26.401 650.469 26.4844C650.438 26.5573 650.406 26.6302 650.375 26.7031C650.344 26.776 650.323 26.8229 650.312 26.8438C650.177 27.1146 650.073 27.3958 650 27.6875C649.927 27.9688 649.833 28.2448 649.719 28.5156C649.698 28.5365 649.656 28.6042 649.594 28.7188C649.542 28.8333 649.479 28.9583 649.406 29.0938C649.333 29.2188 649.266 29.3438 649.203 29.4688C649.151 29.5938 649.125 29.6719 649.125 29.7031C648.948 30.026 648.823 30.375 648.75 30.75C648.688 31.1146 648.615 31.4792 648.531 31.8438C648.458 32.0729 648.385 32.2812 648.312 32.4688C648.24 32.6458 648.172 32.8229 648.109 33C648.047 33.1771 647.995 33.3646 647.953 33.5625C647.922 33.7604 647.906 33.9896 647.906 34.25V34.7031L648.031 34.8125H649.203H651.016C651.036 34.8125 651.094 34.8073 651.188 34.7969C651.281 34.7865 651.385 34.776 651.5 34.7656C651.615 34.7448 651.719 34.7292 651.812 34.7188C651.906 34.7083 651.964 34.7031 651.984 34.7031H652.062H652.203C652.214 34.7031 652.255 34.7083 652.328 34.7188C652.411 34.7292 652.5 34.7448 652.594 34.7656C652.698 34.776 652.792 34.7865 652.875 34.7969C652.958 34.8073 653.016 34.8125 653.047 34.8125H654.344C654.354 34.8125 654.385 34.8229 654.438 34.8438C654.49 34.8542 654.542 34.8698 654.594 34.8906C654.646 34.901 654.693 34.9167 654.734 34.9375C654.786 34.9479 654.818 34.9531 654.828 34.9531C654.87 34.9531 654.927 34.9375 655 34.9062C655.083 34.8646 655.13 34.8333 655.141 34.8125C655.797 34.8438 656.438 34.8281 657.062 34.7656C657.698 34.7031 658.302 34.5729 658.875 34.375C659.448 34.1667 659.99 33.8854 660.5 33.5312C661.01 33.1771 661.469 32.7292 661.875 32.1875C661.875 32.1667 661.885 32.1458 661.906 32.125C661.938 32.0938 661.964 32.0677 661.984 32.0469C662.12 31.974 662.229 31.9167 662.312 31.875C662.396 31.8333 662.484 31.7396 662.578 31.5938C662.651 31.5 662.719 31.3958 662.781 31.2812C662.854 31.1667 662.932 31.0573 663.016 30.9531C663.099 30.849 663.193 30.7604 663.297 30.6875C663.401 30.6042 663.516 30.5469 663.641 30.5156C663.734 30.724 663.786 30.8958 663.797 31.0312C663.818 31.1562 663.828 31.3281 663.828 31.5469C663.828 31.849 663.776 32.1406 663.672 32.4219C663.578 32.7031 663.495 32.9844 663.422 33.2656C663.411 33.2865 663.401 33.3333 663.391 33.4062C663.38 33.4688 663.37 33.5417 663.359 33.625C663.359 33.6979 663.354 33.7708 663.344 33.8438C663.333 33.9062 663.323 33.9479 663.312 33.9688C663.292 34.0208 663.271 34.0938 663.25 34.1875C663.229 34.2812 663.203 34.3802 663.172 34.4844C663.151 34.5781 663.125 34.6719 663.094 34.7656C663.073 34.8594 663.057 34.9219 663.047 34.9531C663.016 35.0469 662.984 35.1615 662.953 35.2969C662.922 35.4219 662.875 35.5469 662.812 35.6719C662.75 35.7969 662.672 35.901 662.578 35.9844C662.484 36.0677 662.37 36.1094 662.234 36.1094H656.125C655.948 36.0573 655.776 36.0156 655.609 35.9844C655.443 35.9427 655.26 35.9219 655.062 35.9219ZM668.828 26.8125C668.828 27.0208 668.891 27.1458 669.016 27.1875C669.151 27.2188 669.292 27.2344 669.438 27.2344H669.797C669.818 27.2344 669.87 27.2135 669.953 27.1719C670.047 27.1302 670.146 27.0833 670.25 27.0312C670.354 26.9688 670.448 26.9167 670.531 26.875C670.625 26.8229 670.688 26.7917 670.719 26.7812C670.729 26.7708 670.76 26.7604 670.812 26.75C670.875 26.7396 670.938 26.7292 671 26.7188C671.073 26.7083 671.135 26.6979 671.188 26.6875C671.25 26.6771 671.292 26.6615 671.312 26.6406L671.438 26.5625C671.469 26.5417 671.526 26.5052 671.609 26.4531C671.693 26.401 671.781 26.349 671.875 26.2969C671.969 26.2448 672.052 26.1979 672.125 26.1562C672.208 26.1042 672.26 26.0677 672.281 26.0469C672.625 25.8177 672.974 25.5625 673.328 25.2812C673.682 25 674 24.6979 674.281 24.375C674.562 24.0417 674.792 23.6823 674.969 23.2969C675.156 22.901 675.25 22.4688 675.25 22C675.25 21.9375 675.224 21.875 675.172 21.8125C675.12 21.7396 675.057 21.6771 674.984 21.625C674.911 21.5729 674.833 21.5312 674.75 21.5C674.667 21.4583 674.594 21.4375 674.531 21.4375C674.469 21.4479 674.406 21.4583 674.344 21.4688C674.292 21.4792 674.234 21.4896 674.172 21.5C674.12 21.5 674.083 21.5052 674.062 21.5156C673.344 21.7448 672.698 22.0833 672.125 22.5312C671.562 22.9792 671.057 23.5208 670.609 24.1562C670.495 24.3333 670.401 24.5 670.328 24.6562C670.255 24.8125 670.151 24.9635 670.016 25.1094C669.807 25.3698 669.594 25.6406 669.375 25.9219C669.156 26.1927 668.974 26.4792 668.828 26.7812V26.8125ZM667.359 25.1094C667.391 25.1094 667.422 25.0938 667.453 25.0625C667.484 25.0208 667.51 25 667.531 25C667.604 24.8854 667.661 24.7969 667.703 24.7344C667.755 24.6615 667.802 24.599 667.844 24.5469C667.885 24.4844 667.932 24.4271 667.984 24.375C668.047 24.3229 668.13 24.25 668.234 24.1562C668.234 24.1458 668.255 24.125 668.297 24.0938C668.349 24.0625 668.401 24.026 668.453 23.9844C668.505 23.9427 668.552 23.9062 668.594 23.875C668.646 23.8333 668.677 23.8021 668.688 23.7812C668.708 23.7604 668.75 23.7135 668.812 23.6406C668.875 23.5573 668.938 23.4688 669 23.375C669.073 23.2812 669.135 23.1979 669.188 23.125C669.25 23.0417 669.292 22.9896 669.312 22.9688C669.552 22.6458 669.844 22.3958 670.188 22.2188C670.531 22.0312 670.87 21.8385 671.203 21.6406C671.224 21.6302 671.281 21.599 671.375 21.5469C671.469 21.4844 671.526 21.4479 671.547 21.4375C672.047 21.0729 672.589 20.8385 673.172 20.7344C673.755 20.6198 674.344 20.5625 674.938 20.5625H676.016C676.318 20.6979 676.615 20.8802 676.906 21.1094C677.208 21.3385 677.406 21.6354 677.5 22C677.51 22.0312 677.516 22.0885 677.516 22.1719C677.526 22.2552 677.531 22.3385 677.531 22.4219C677.531 22.5052 677.531 22.5885 677.531 22.6719C677.531 22.7448 677.531 22.7969 677.531 22.8281C677.531 22.8906 677.531 22.9688 677.531 23.0625C677.531 23.1562 677.531 23.25 677.531 23.3438C677.531 23.4375 677.526 23.5208 677.516 23.5938C677.516 23.6562 677.51 23.6927 677.5 23.7031L677.406 23.9531C677.385 24.0156 677.365 24.0833 677.344 24.1562C677.323 24.2188 677.302 24.2656 677.281 24.2969C677.24 24.3802 677.177 24.4948 677.094 24.6406C677.01 24.776 676.917 24.9167 676.812 25.0625C676.708 25.1979 676.604 25.3281 676.5 25.4531C676.396 25.5677 676.307 25.651 676.234 25.7031C676.203 25.724 676.141 25.7708 676.047 25.8438C675.964 25.9062 675.896 25.9479 675.844 25.9688C675.844 25.9688 675.818 25.9792 675.766 26C675.724 26.0208 675.677 26.0417 675.625 26.0625C675.573 26.0833 675.521 26.1094 675.469 26.1406C675.427 26.1615 675.401 26.1771 675.391 26.1875C675.37 26.2083 675.328 26.276 675.266 26.3906C675.203 26.4948 675.161 26.5521 675.141 26.5625C674.995 26.6875 674.812 26.8229 674.594 26.9688C674.385 27.1042 674.156 27.2344 673.906 27.3594C673.667 27.474 673.427 27.5781 673.188 27.6719C672.948 27.7552 672.729 27.8125 672.531 27.8438C672.51 27.8542 672.448 27.8594 672.344 27.8594C672.26 27.8594 672.177 27.8594 672.094 27.8594C672.021 27.849 671.974 27.8438 671.953 27.8438C671.911 27.8646 671.812 27.8854 671.656 27.9062C671.51 27.9271 671.396 27.9479 671.312 27.9688C671.292 27.9688 671.219 27.9844 671.094 28.0156C670.969 28.0365 670.896 28.0469 670.875 28.0469C670.823 28.0573 670.74 28.0729 670.625 28.0938C670.51 28.1042 670.385 28.1198 670.25 28.1406C670.125 28.1615 670 28.1823 669.875 28.2031C669.76 28.2135 669.672 28.2188 669.609 28.2188C669.516 28.2188 669.417 28.2135 669.312 28.2031C669.208 28.1927 669.109 28.1875 669.016 28.1875C668.849 28.1875 668.693 28.2188 668.547 28.2812C668.401 28.3333 668.297 28.4635 668.234 28.6719C668.214 28.7552 668.193 28.8906 668.172 29.0781C668.151 29.2552 668.13 29.4479 668.109 29.6562C668.089 29.8542 668.068 30.0469 668.047 30.2344C668.026 30.4115 668.016 30.5417 668.016 30.625C667.984 30.7083 667.958 30.7812 667.938 30.8438C667.917 30.8958 667.901 30.9479 667.891 31C667.88 31.0521 667.875 31.0885 667.875 31.1094C667.875 31.1198 667.88 31.151 667.891 31.2031C667.911 31.2552 667.927 31.3125 667.938 31.375C667.958 31.4375 667.974 31.5 667.984 31.5625C668.005 31.6146 668.016 31.6406 668.016 31.6406C668.016 31.6719 668.021 31.7448 668.031 31.8594C668.042 31.9635 668.052 32.0781 668.062 32.2031C668.073 32.3177 668.083 32.4271 668.094 32.5312C668.104 32.6354 668.115 32.7031 668.125 32.7344C668.125 32.7865 668.151 32.8698 668.203 32.9844C668.266 33.099 668.307 33.1667 668.328 33.1875C668.693 33.5 669.089 33.6823 669.516 33.7344C669.953 33.7865 670.391 33.8125 670.828 33.8125C671.182 33.8125 671.49 33.6875 671.75 33.4375C672.01 33.1875 672.25 32.9115 672.469 32.6094C672.688 32.3073 672.891 32.0312 673.078 31.7812C673.276 31.5312 673.479 31.4062 673.688 31.4062C673.833 31.4062 673.932 31.4792 673.984 31.625C674.036 31.7708 674.062 31.9062 674.062 32.0312C674.062 32.2708 674.005 32.5156 673.891 32.7656C673.786 33.0156 673.656 33.2604 673.5 33.5C673.344 33.7396 673.177 33.9688 673 34.1875C672.823 34.3958 672.667 34.5833 672.531 34.75C672.5 34.7812 672.453 34.8333 672.391 34.9062C672.339 34.9688 672.302 35 672.281 35C672.25 35.0208 672.177 35.0625 672.062 35.125C671.948 35.1771 671.823 35.2396 671.688 35.3125C671.552 35.375 671.427 35.4375 671.312 35.5C671.198 35.5521 671.125 35.5938 671.094 35.625C671.073 35.625 671.036 35.6615 670.984 35.7344C670.932 35.8073 670.896 35.8438 670.875 35.8438C670.76 35.8854 670.667 35.9115 670.594 35.9219C670.521 35.9219 670.453 35.9271 670.391 35.9375C670.328 35.9375 670.266 35.9479 670.203 35.9688C670.151 35.9792 670.089 36.0156 670.016 36.0781H669.172C668.797 36.0781 668.469 36.0521 668.188 36C667.917 35.9375 667.672 35.8385 667.453 35.7031C667.245 35.5573 667.052 35.375 666.875 35.1562C666.698 34.9271 666.516 34.6406 666.328 34.2969C666.307 34.2656 666.276 34.2135 666.234 34.1406C666.193 34.0677 666.151 33.9948 666.109 33.9219C666.078 33.8385 666.047 33.7656 666.016 33.7031C665.984 33.6302 665.964 33.5833 665.953 33.5625C665.943 33.5208 665.922 33.4635 665.891 33.3906C665.87 33.3177 665.849 33.2448 665.828 33.1719C665.807 33.0885 665.786 33.0208 665.766 32.9688C665.745 32.9062 665.734 32.8698 665.734 32.8594C665.714 32.5573 665.693 32.25 665.672 31.9375C665.661 31.625 665.656 31.3125 665.656 31C665.656 30.7604 665.661 30.5156 665.672 30.2656C665.693 30.0052 665.714 29.7552 665.734 29.5156C665.766 29.276 665.812 29.0729 665.875 28.9062C665.948 28.7396 666.021 28.5521 666.094 28.3438C666.104 28.3125 666.125 28.2396 666.156 28.125C666.188 28 666.224 27.8698 666.266 27.7344C666.307 27.599 666.344 27.474 666.375 27.3594C666.406 27.2344 666.422 27.1615 666.422 27.1406C666.464 27.0573 666.526 26.9219 666.609 26.7344C666.703 26.5365 666.797 26.3333 666.891 26.125C666.995 25.9062 667.089 25.7031 667.172 25.5156C667.266 25.3177 667.328 25.1823 667.359 25.1094ZM680.703 26.8125C680.703 27.0208 680.766 27.1458 680.891 27.1875C681.026 27.2188 681.167 27.2344 681.312 27.2344H681.672C681.693 27.2344 681.745 27.2135 681.828 27.1719C681.922 27.1302 682.021 27.0833 682.125 27.0312C682.229 26.9688 682.323 26.9167 682.406 26.875C682.5 26.8229 682.562 26.7917 682.594 26.7812C682.604 26.7708 682.635 26.7604 682.688 26.75C682.75 26.7396 682.812 26.7292 682.875 26.7188C682.948 26.7083 683.01 26.6979 683.062 26.6875C683.125 26.6771 683.167 26.6615 683.188 26.6406L683.312 26.5625C683.344 26.5417 683.401 26.5052 683.484 26.4531C683.568 26.401 683.656 26.349 683.75 26.2969C683.844 26.2448 683.927 26.1979 684 26.1562C684.083 26.1042 684.135 26.0677 684.156 26.0469C684.5 25.8177 684.849 25.5625 685.203 25.2812C685.557 25 685.875 24.6979 686.156 24.375C686.438 24.0417 686.667 23.6823 686.844 23.2969C687.031 22.901 687.125 22.4688 687.125 22C687.125 21.9375 687.099 21.875 687.047 21.8125C686.995 21.7396 686.932 21.6771 686.859 21.625C686.786 21.5729 686.708 21.5312 686.625 21.5C686.542 21.4583 686.469 21.4375 686.406 21.4375C686.344 21.4479 686.281 21.4583 686.219 21.4688C686.167 21.4792 686.109 21.4896 686.047 21.5C685.995 21.5 685.958 21.5052 685.938 21.5156C685.219 21.7448 684.573 22.0833 684 22.5312C683.438 22.9792 682.932 23.5208 682.484 24.1562C682.37 24.3333 682.276 24.5 682.203 24.6562C682.13 24.8125 682.026 24.9635 681.891 25.1094C681.682 25.3698 681.469 25.6406 681.25 25.9219C681.031 26.1927 680.849 26.4792 680.703 26.7812V26.8125ZM679.234 25.1094C679.266 25.1094 679.297 25.0938 679.328 25.0625C679.359 25.0208 679.385 25 679.406 25C679.479 24.8854 679.536 24.7969 679.578 24.7344C679.63 24.6615 679.677 24.599 679.719 24.5469C679.76 24.4844 679.807 24.4271 679.859 24.375C679.922 24.3229 680.005 24.25 680.109 24.1562C680.109 24.1458 680.13 24.125 680.172 24.0938C680.224 24.0625 680.276 24.026 680.328 23.9844C680.38 23.9427 680.427 23.9062 680.469 23.875C680.521 23.8333 680.552 23.8021 680.562 23.7812C680.583 23.7604 680.625 23.7135 680.688 23.6406C680.75 23.5573 680.812 23.4688 680.875 23.375C680.948 23.2812 681.01 23.1979 681.062 23.125C681.125 23.0417 681.167 22.9896 681.188 22.9688C681.427 22.6458 681.719 22.3958 682.062 22.2188C682.406 22.0312 682.745 21.8385 683.078 21.6406C683.099 21.6302 683.156 21.599 683.25 21.5469C683.344 21.4844 683.401 21.4479 683.422 21.4375C683.922 21.0729 684.464 20.8385 685.047 20.7344C685.63 20.6198 686.219 20.5625 686.812 20.5625H687.891C688.193 20.6979 688.49 20.8802 688.781 21.1094C689.083 21.3385 689.281 21.6354 689.375 22C689.385 22.0312 689.391 22.0885 689.391 22.1719C689.401 22.2552 689.406 22.3385 689.406 22.4219C689.406 22.5052 689.406 22.5885 689.406 22.6719C689.406 22.7448 689.406 22.7969 689.406 22.8281C689.406 22.8906 689.406 22.9688 689.406 23.0625C689.406 23.1562 689.406 23.25 689.406 23.3438C689.406 23.4375 689.401 23.5208 689.391 23.5938C689.391 23.6562 689.385 23.6927 689.375 23.7031L689.281 23.9531C689.26 24.0156 689.24 24.0833 689.219 24.1562C689.198 24.2188 689.177 24.2656 689.156 24.2969C689.115 24.3802 689.052 24.4948 688.969 24.6406C688.885 24.776 688.792 24.9167 688.688 25.0625C688.583 25.1979 688.479 25.3281 688.375 25.4531C688.271 25.5677 688.182 25.651 688.109 25.7031C688.078 25.724 688.016 25.7708 687.922 25.8438C687.839 25.9062 687.771 25.9479 687.719 25.9688C687.719 25.9688 687.693 25.9792 687.641 26C687.599 26.0208 687.552 26.0417 687.5 26.0625C687.448 26.0833 687.396 26.1094 687.344 26.1406C687.302 26.1615 687.276 26.1771 687.266 26.1875C687.245 26.2083 687.203 26.276 687.141 26.3906C687.078 26.4948 687.036 26.5521 687.016 26.5625C686.87 26.6875 686.688 26.8229 686.469 26.9688C686.26 27.1042 686.031 27.2344 685.781 27.3594C685.542 27.474 685.302 27.5781 685.062 27.6719C684.823 27.7552 684.604 27.8125 684.406 27.8438C684.385 27.8542 684.323 27.8594 684.219 27.8594C684.135 27.8594 684.052 27.8594 683.969 27.8594C683.896 27.849 683.849 27.8438 683.828 27.8438C683.786 27.8646 683.688 27.8854 683.531 27.9062C683.385 27.9271 683.271 27.9479 683.188 27.9688C683.167 27.9688 683.094 27.9844 682.969 28.0156C682.844 28.0365 682.771 28.0469 682.75 28.0469C682.698 28.0573 682.615 28.0729 682.5 28.0938C682.385 28.1042 682.26 28.1198 682.125 28.1406C682 28.1615 681.875 28.1823 681.75 28.2031C681.635 28.2135 681.547 28.2188 681.484 28.2188C681.391 28.2188 681.292 28.2135 681.188 28.2031C681.083 28.1927 680.984 28.1875 680.891 28.1875C680.724 28.1875 680.568 28.2188 680.422 28.2812C680.276 28.3333 680.172 28.4635 680.109 28.6719C680.089 28.7552 680.068 28.8906 680.047 29.0781C680.026 29.2552 680.005 29.4479 679.984 29.6562C679.964 29.8542 679.943 30.0469 679.922 30.2344C679.901 30.4115 679.891 30.5417 679.891 30.625C679.859 30.7083 679.833 30.7812 679.812 30.8438C679.792 30.8958 679.776 30.9479 679.766 31C679.755 31.0521 679.75 31.0885 679.75 31.1094C679.75 31.1198 679.755 31.151 679.766 31.2031C679.786 31.2552 679.802 31.3125 679.812 31.375C679.833 31.4375 679.849 31.5 679.859 31.5625C679.88 31.6146 679.891 31.6406 679.891 31.6406C679.891 31.6719 679.896 31.7448 679.906 31.8594C679.917 31.9635 679.927 32.0781 679.938 32.2031C679.948 32.3177 679.958 32.4271 679.969 32.5312C679.979 32.6354 679.99 32.7031 680 32.7344C680 32.7865 680.026 32.8698 680.078 32.9844C680.141 33.099 680.182 33.1667 680.203 33.1875C680.568 33.5 680.964 33.6823 681.391 33.7344C681.828 33.7865 682.266 33.8125 682.703 33.8125C683.057 33.8125 683.365 33.6875 683.625 33.4375C683.885 33.1875 684.125 32.9115 684.344 32.6094C684.562 32.3073 684.766 32.0312 684.953 31.7812C685.151 31.5312 685.354 31.4062 685.562 31.4062C685.708 31.4062 685.807 31.4792 685.859 31.625C685.911 31.7708 685.938 31.9062 685.938 32.0312C685.938 32.2708 685.88 32.5156 685.766 32.7656C685.661 33.0156 685.531 33.2604 685.375 33.5C685.219 33.7396 685.052 33.9688 684.875 34.1875C684.698 34.3958 684.542 34.5833 684.406 34.75C684.375 34.7812 684.328 34.8333 684.266 34.9062C684.214 34.9688 684.177 35 684.156 35C684.125 35.0208 684.052 35.0625 683.938 35.125C683.823 35.1771 683.698 35.2396 683.562 35.3125C683.427 35.375 683.302 35.4375 683.188 35.5C683.073 35.5521 683 35.5938 682.969 35.625C682.948 35.625 682.911 35.6615 682.859 35.7344C682.807 35.8073 682.771 35.8438 682.75 35.8438C682.635 35.8854 682.542 35.9115 682.469 35.9219C682.396 35.9219 682.328 35.9271 682.266 35.9375C682.203 35.9375 682.141 35.9479 682.078 35.9688C682.026 35.9792 681.964 36.0156 681.891 36.0781H681.047C680.672 36.0781 680.344 36.0521 680.062 36C679.792 35.9375 679.547 35.8385 679.328 35.7031C679.12 35.5573 678.927 35.375 678.75 35.1562C678.573 34.9271 678.391 34.6406 678.203 34.2969C678.182 34.2656 678.151 34.2135 678.109 34.1406C678.068 34.0677 678.026 33.9948 677.984 33.9219C677.953 33.8385 677.922 33.7656 677.891 33.7031C677.859 33.6302 677.839 33.5833 677.828 33.5625C677.818 33.5208 677.797 33.4635 677.766 33.3906C677.745 33.3177 677.724 33.2448 677.703 33.1719C677.682 33.0885 677.661 33.0208 677.641 32.9688C677.62 32.9062 677.609 32.8698 677.609 32.8594C677.589 32.5573 677.568 32.25 677.547 31.9375C677.536 31.625 677.531 31.3125 677.531 31C677.531 30.7604 677.536 30.5156 677.547 30.2656C677.568 30.0052 677.589 29.7552 677.609 29.5156C677.641 29.276 677.688 29.0729 677.75 28.9062C677.823 28.7396 677.896 28.5521 677.969 28.3438C677.979 28.3125 678 28.2396 678.031 28.125C678.062 28 678.099 27.8698 678.141 27.7344C678.182 27.599 678.219 27.474 678.25 27.3594C678.281 27.2344 678.297 27.1615 678.297 27.1406C678.339 27.0573 678.401 26.9219 678.484 26.7344C678.578 26.5365 678.672 26.3333 678.766 26.125C678.87 25.9062 678.964 25.7031 679.047 25.5156C679.141 25.3177 679.203 25.1823 679.234 25.1094ZM689.125 34.7344C689.125 34.474 689.161 34.2135 689.234 33.9531C689.307 33.6823 689.396 33.4167 689.5 33.1562C689.615 32.8958 689.734 32.6406 689.859 32.3906C689.984 32.1406 690.099 31.8906 690.203 31.6406C690.297 31.401 690.385 31.151 690.469 30.8906C690.562 30.6302 690.667 30.3698 690.781 30.1094C690.792 30.0677 690.823 29.9896 690.875 29.875C690.938 29.75 690.974 29.6667 690.984 29.625C691.016 29.6042 691.068 29.5521 691.141 29.4688C691.224 29.375 691.266 29.3177 691.266 29.2969C691.266 29.2865 691.276 29.2448 691.297 29.1719C691.328 29.0885 691.354 29.0052 691.375 28.9219C691.406 28.8385 691.432 28.7604 691.453 28.6875C691.484 28.6042 691.5 28.5573 691.5 28.5469C691.51 28.4948 691.568 28.3646 691.672 28.1562C691.786 27.9479 691.906 27.7292 692.031 27.5C692.156 27.2604 692.271 27.0365 692.375 26.8281C692.479 26.6198 692.542 26.4896 692.562 26.4375C692.573 26.4062 692.604 26.3177 692.656 26.1719C692.719 26.0156 692.786 25.8438 692.859 25.6562C692.932 25.4583 693.005 25.2656 693.078 25.0781C693.161 24.8802 693.224 24.7292 693.266 24.625C693.359 24.4167 693.448 24.2188 693.531 24.0312C693.625 23.8333 693.672 23.6146 693.672 23.375V22.9688C693.589 22.875 693.474 22.7969 693.328 22.7344C693.182 22.6615 693.052 22.625 692.938 22.625H691.391C691.328 22.5729 691.266 22.5052 691.203 22.4219C691.151 22.3385 691.125 22.2604 691.125 22.1875C691.125 22.0625 691.182 21.9219 691.297 21.7656C691.411 21.6094 691.516 21.5 691.609 21.4375C691.641 21.3854 691.688 21.3438 691.75 21.3125C691.781 21.2917 691.818 21.276 691.859 21.2656H694.719C694.865 21.2656 694.99 21.1458 695.094 20.9062C695.208 20.6562 695.307 20.375 695.391 20.0625C695.474 19.7396 695.547 19.4323 695.609 19.1406C695.672 18.849 695.729 18.6562 695.781 18.5625C695.781 18.5521 695.797 18.526 695.828 18.4844C695.859 18.4427 695.896 18.3958 695.938 18.3438C695.979 18.2917 696.016 18.2448 696.047 18.2031C696.089 18.151 696.115 18.1094 696.125 18.0781C696.271 17.9115 696.401 17.7604 696.516 17.625C696.641 17.4896 696.766 17.375 696.891 17.2812C697.016 17.1875 697.156 17.1198 697.312 17.0781C697.469 17.026 697.667 17 697.906 17H698.562C698.573 17.0104 698.594 17.0417 698.625 17.0938C698.656 17.1354 698.688 17.1823 698.719 17.2344C698.75 17.2865 698.781 17.3385 698.812 17.3906C698.844 17.4323 698.87 17.4635 698.891 17.4844C698.891 17.5052 698.891 17.5417 698.891 17.5938C698.901 17.6354 698.906 17.6719 698.906 17.7031C698.906 17.8281 698.88 17.9531 698.828 18.0781C698.786 18.1927 698.734 18.3073 698.672 18.4219C698.609 18.526 698.542 18.6302 698.469 18.7344C698.406 18.8385 698.354 18.9427 698.312 19.0469C698.156 19.3177 697.99 19.5833 697.812 19.8438C697.646 20.0938 697.562 20.3906 697.562 20.7344C697.562 20.7865 697.568 20.8333 697.578 20.875C697.589 20.9062 697.625 20.9271 697.688 20.9375C697.906 20.9896 698.141 21.026 698.391 21.0469C698.641 21.0677 698.885 21.0781 699.125 21.0781C699.271 21.0781 699.411 21.0729 699.547 21.0625C699.693 21.0521 699.823 21.0469 699.938 21.0469C700.042 21.0469 700.12 21.0729 700.172 21.125C700.224 21.1771 700.26 21.2396 700.281 21.3125C700.312 21.3854 700.328 21.4688 700.328 21.5625C700.339 21.6458 700.344 21.7188 700.344 21.7812C700.344 21.9479 700.302 22.0729 700.219 22.1562C700.135 22.2292 700.031 22.2812 699.906 22.3125C699.781 22.3438 699.646 22.3594 699.5 22.3594C699.365 22.3594 699.24 22.3646 699.125 22.375C699.094 22.375 699.031 22.3802 698.938 22.3906C698.844 22.401 698.745 22.4167 698.641 22.4375C698.536 22.4479 698.438 22.4635 698.344 22.4844C698.26 22.4948 698.208 22.5052 698.188 22.5156H697.562C697.375 22.5156 697.198 22.5417 697.031 22.5938C696.875 22.6354 696.734 22.7604 696.609 22.9688C696.599 22.9896 696.578 23.0365 696.547 23.1094C696.526 23.1823 696.505 23.2604 696.484 23.3438C696.464 23.4167 696.443 23.4896 696.422 23.5625C696.401 23.6354 696.391 23.6823 696.391 23.7031C696.391 23.7135 696.37 23.75 696.328 23.8125C696.297 23.8646 696.26 23.9271 696.219 24C696.188 24.0625 696.151 24.1198 696.109 24.1719C696.078 24.224 696.057 24.2552 696.047 24.2656C696.005 24.3177 695.953 24.4115 695.891 24.5469C695.828 24.6823 695.792 24.7604 695.781 24.7812C695.771 24.8125 695.745 24.8802 695.703 24.9844C695.672 25.0781 695.635 25.1875 695.594 25.3125C695.562 25.4271 695.526 25.5365 695.484 25.6406C695.453 25.7448 695.432 25.8125 695.422 25.8438C695.411 25.8542 695.391 25.875 695.359 25.9062C695.339 25.9271 695.318 25.9583 695.297 26L695.203 26.1562C695.099 26.3542 694.984 26.5781 694.859 26.8281C694.734 27.0677 694.609 27.3177 694.484 27.5781C694.359 27.8385 694.24 28.099 694.125 28.3594C694.021 28.6094 693.932 28.8333 693.859 29.0312C693.859 29.0417 693.854 29.0729 693.844 29.125C693.833 29.1667 693.823 29.2188 693.812 29.2812C693.812 29.3333 693.807 29.3854 693.797 29.4375C693.786 29.4896 693.781 29.526 693.781 29.5469C693.698 29.7344 693.599 29.9271 693.484 30.125C693.37 30.3229 693.26 30.526 693.156 30.7344C693.062 30.9427 692.979 31.1562 692.906 31.375C692.833 31.5938 692.797 31.8177 692.797 32.0469V32.375L694.016 31.7812C694.078 31.7083 694.193 31.5833 694.359 31.4062C694.526 31.2292 694.703 31.0469 694.891 30.8594C695.078 30.6719 695.255 30.5 695.422 30.3438C695.589 30.1875 695.708 30.0833 695.781 30.0312C695.823 29.9792 695.906 29.9115 696.031 29.8281C696.156 29.7344 696.245 29.6667 696.297 29.625H696.312C696.438 29.625 696.536 29.6771 696.609 29.7812C696.682 29.875 696.719 29.9844 696.719 30.1094C696.719 30.2865 696.708 30.4688 696.688 30.6562C696.677 30.8438 696.625 31.0208 696.531 31.1875C696.417 31.3125 696.292 31.4635 696.156 31.6406C696.021 31.8073 695.88 31.9792 695.734 32.1562C695.599 32.3333 695.458 32.5052 695.312 32.6719C695.177 32.8385 695.052 32.974 694.938 33.0781C694.938 33.099 694.911 33.1302 694.859 33.1719C694.818 33.2031 694.771 33.2396 694.719 33.2812C694.667 33.3125 694.615 33.3438 694.562 33.375C694.51 33.4062 694.484 33.4271 694.484 33.4375C694.266 33.6458 694.073 33.8281 693.906 33.9844C693.74 34.1302 693.573 34.2708 693.406 34.4062C693.24 34.5417 693.062 34.6771 692.875 34.8125C692.688 34.9375 692.464 35.0833 692.203 35.25C692.068 35.3229 691.938 35.401 691.812 35.4844C691.688 35.5677 691.557 35.6458 691.422 35.7188C691.297 35.7812 691.161 35.8385 691.016 35.8906C690.88 35.9323 690.729 35.9531 690.562 35.9531C690.167 35.9531 689.828 35.8646 689.547 35.6875C689.266 35.5 689.125 35.1823 689.125 34.7344ZM700.891 28.4531V27.6719C700.901 27.599 700.917 27.474 700.938 27.2969C700.958 27.1094 700.979 26.9167 701 26.7188C701.021 26.5104 701.042 26.3177 701.062 26.1406C701.083 25.9531 701.099 25.8229 701.109 25.75C701.161 25.6979 701.214 25.5833 701.266 25.4062C701.328 25.2188 701.391 25.0052 701.453 24.7656C701.526 24.526 701.594 24.2708 701.656 24C701.729 23.7292 701.797 23.4844 701.859 23.2656C701.932 23.0365 701.995 22.849 702.047 22.7031C702.109 22.5469 702.167 22.4583 702.219 22.4375L703.047 20.75C703.099 20.7188 703.146 20.6615 703.188 20.5781C703.229 20.4844 703.266 20.3906 703.297 20.2969C703.339 20.1927 703.375 20.099 703.406 20.0156C703.448 19.9219 703.484 19.8542 703.516 19.8125C703.547 19.7708 703.594 19.6979 703.656 19.5938C703.729 19.4792 703.802 19.3646 703.875 19.25C703.958 19.1354 704.031 19.026 704.094 18.9219C704.167 18.8177 704.219 18.7448 704.25 18.7031C704.26 18.7031 704.292 18.6927 704.344 18.6719C704.406 18.6406 704.443 18.625 704.453 18.625C704.474 18.5938 704.505 18.5573 704.547 18.5156C704.589 18.474 704.625 18.4479 704.656 18.4375C704.656 18.4167 704.703 18.3646 704.797 18.2812C704.901 18.1979 704.953 18.1458 704.953 18.125C705.161 17.6667 705.411 17.25 705.703 16.875C706.005 16.4896 706.339 16.1406 706.703 15.8281C706.714 15.8281 706.745 15.8177 706.797 15.7969C706.849 15.776 706.901 15.7552 706.953 15.7344C707.005 15.7031 707.052 15.6771 707.094 15.6562C707.146 15.6354 707.177 15.625 707.188 15.625C707.198 15.625 707.219 15.6094 707.25 15.5781C707.292 15.5365 707.333 15.4948 707.375 15.4531C707.427 15.4115 707.469 15.375 707.5 15.3438C707.542 15.3021 707.562 15.276 707.562 15.2656C707.656 15.1823 707.792 15.0677 707.969 14.9219C708.146 14.7656 708.323 14.6094 708.5 14.4531C708.688 14.2969 708.849 14.1615 708.984 14.0469C709.13 13.9219 709.219 13.8438 709.25 13.8125C709.26 13.8125 709.323 13.7812 709.438 13.7188C709.562 13.6562 709.651 13.6042 709.703 13.5625C709.995 13.4375 710.26 13.3177 710.5 13.2031C710.74 13.0885 710.974 12.9896 711.203 12.9062C711.432 12.8125 711.667 12.7448 711.906 12.7031C712.156 12.651 712.432 12.625 712.734 12.625H713.406C713.417 12.625 713.453 12.6354 713.516 12.6562C713.578 12.6667 713.641 12.6823 713.703 12.7031C713.766 12.7135 713.823 12.724 713.875 12.7344C713.938 12.7448 713.969 12.75 713.969 12.75C714.448 12.7812 714.938 12.8021 715.438 12.8125C715.948 12.8229 716.417 12.9115 716.844 13.0781C716.885 13.099 716.958 13.1354 717.062 13.1875C717.177 13.2396 717.297 13.3021 717.422 13.375C717.547 13.4375 717.672 13.5 717.797 13.5625C717.922 13.625 718.016 13.6719 718.078 13.7031C718.109 13.7135 718.156 13.7396 718.219 13.7812C718.281 13.8125 718.344 13.849 718.406 13.8906C718.469 13.9323 718.521 13.9688 718.562 14C718.604 14.0312 718.625 14.0469 718.625 14.0469C718.75 14.1406 718.87 14.2552 718.984 14.3906C719.109 14.526 719.24 14.6615 719.375 14.7969C719.51 14.9219 719.651 15.0312 719.797 15.125C719.943 15.2188 720.099 15.2656 720.266 15.2656C720.328 15.2656 720.38 15.2344 720.422 15.1719C720.464 15.099 720.5 15.0208 720.531 14.9375C720.562 14.8438 720.589 14.7552 720.609 14.6719C720.641 14.5781 720.672 14.5052 720.703 14.4531C720.724 14.4115 720.766 14.3646 720.828 14.3125C720.891 14.25 720.948 14.2188 721 14.2188C721.083 14.2188 721.161 14.25 721.234 14.3125C721.318 14.375 721.365 14.4427 721.375 14.5156C721.427 14.599 721.458 14.6667 721.469 14.7188C721.479 14.7708 721.484 14.8177 721.484 14.8594C721.484 15.1094 721.448 15.349 721.375 15.5781C721.312 15.7969 721.234 16.0104 721.141 16.2188C721.057 16.4271 720.969 16.6406 720.875 16.8594C720.792 17.0781 720.724 17.3021 720.672 17.5312C720.661 17.625 720.641 17.7917 720.609 18.0312C720.578 18.2604 720.542 18.5104 720.5 18.7812C720.458 19.0417 720.422 19.2917 720.391 19.5312C720.359 19.7604 720.339 19.9167 720.328 20C720.307 20.0208 720.281 20.0573 720.25 20.1094C720.229 20.151 720.198 20.1979 720.156 20.25C720.125 20.3021 720.089 20.3542 720.047 20.4062C720.016 20.4479 719.99 20.474 719.969 20.4844C719.958 20.526 719.922 20.5833 719.859 20.6562C719.797 20.7188 719.755 20.75 719.734 20.75H719.656C719.562 20.75 719.464 20.7083 719.359 20.625C719.266 20.5312 719.182 20.4583 719.109 20.4062C719.109 20.3854 719.099 20.3594 719.078 20.3281C719.068 20.2969 719.052 20.2708 719.031 20.25C719 20.2188 718.974 20.1875 718.953 20.1562V18.3438C718.88 18.2917 718.807 18.1562 718.734 17.9375C718.672 17.7188 718.604 17.4792 718.531 17.2188C718.469 16.9583 718.406 16.7083 718.344 16.4688C718.281 16.2292 718.224 16.0521 718.172 15.9375C718.151 15.9271 718.109 15.875 718.047 15.7812C717.995 15.6875 717.964 15.6354 717.953 15.625C717.932 15.625 717.865 15.6042 717.75 15.5625C717.646 15.5104 717.583 15.4844 717.562 15.4844C717.521 15.4531 717.474 15.4062 717.422 15.3438C717.37 15.2708 717.318 15.1979 717.266 15.125C717.214 15.0521 717.161 14.9844 717.109 14.9219C717.068 14.8594 717.031 14.8125 717 14.7812C716.979 14.7708 716.938 14.7396 716.875 14.6875C716.812 14.6354 716.745 14.5833 716.672 14.5312C716.609 14.4792 716.547 14.4323 716.484 14.3906C716.422 14.349 716.385 14.3281 716.375 14.3281C716.25 14.224 716.141 14.1302 716.047 14.0469C715.964 13.9635 715.875 13.901 715.781 13.8594C715.698 13.8073 715.599 13.7708 715.484 13.75C715.37 13.7188 715.229 13.7031 715.062 13.7031H714.375C714.292 13.7031 714.167 13.7083 714 13.7188C713.844 13.7292 713.682 13.7448 713.516 13.7656C713.349 13.776 713.198 13.7865 713.062 13.7969C712.927 13.8073 712.844 13.8125 712.812 13.8125C712.792 13.8229 712.719 13.8646 712.594 13.9375C712.479 14 712.401 14.0365 712.359 14.0469C712.359 14.0469 712.333 14.0729 712.281 14.125L712.219 14.1875C712.167 14.2188 712.078 14.276 711.953 14.3594C711.828 14.4427 711.693 14.5312 711.547 14.625C711.411 14.7083 711.281 14.7917 711.156 14.875C711.042 14.9479 710.964 15 710.922 15.0312C710.901 15.0417 710.865 15.0625 710.812 15.0938C710.771 15.1146 710.724 15.1354 710.672 15.1562C710.62 15.1771 710.568 15.1979 710.516 15.2188C710.474 15.2396 710.448 15.2552 710.438 15.2656C710.125 15.5365 709.854 15.8385 709.625 16.1719C709.406 16.5052 709.161 16.8229 708.891 17.125C708.87 17.1562 708.823 17.2083 708.75 17.2812C708.677 17.3542 708.599 17.4323 708.516 17.5156C708.432 17.5885 708.354 17.6615 708.281 17.7344C708.208 17.8073 708.167 17.8594 708.156 17.8906C708.135 17.9219 708.12 17.9531 708.109 17.9844C708.099 18.0052 708.089 18.0312 708.078 18.0625C708.068 18.0833 708.062 18.1042 708.062 18.125C708.042 18.1458 708.016 18.2083 707.984 18.3125C707.953 18.4062 707.922 18.4635 707.891 18.4844C707.88 18.4948 707.844 18.5312 707.781 18.5938C707.729 18.6458 707.672 18.7083 707.609 18.7812C707.547 18.8542 707.484 18.9219 707.422 18.9844C707.37 19.0365 707.339 19.0677 707.328 19.0781C707.307 19.099 707.281 19.1562 707.25 19.25C707.229 19.3333 707.208 19.3854 707.188 19.4062C707.177 19.4583 707.141 19.5573 707.078 19.7031C707.026 19.849 706.964 20.0052 706.891 20.1719C706.828 20.3281 706.771 20.474 706.719 20.6094C706.667 20.7448 706.635 20.8281 706.625 20.8594C706.615 20.8802 706.604 20.9167 706.594 20.9688C706.583 21.0104 706.573 21.0625 706.562 21.125C706.552 21.1771 706.536 21.2292 706.516 21.2812C706.505 21.3229 706.495 21.3438 706.484 21.3438C706.474 21.375 706.438 21.4531 706.375 21.5781C706.323 21.6927 706.26 21.8177 706.188 21.9531C706.125 22.0885 706.062 22.2135 706 22.3281C705.938 22.4427 705.901 22.5104 705.891 22.5312C705.661 23.0312 705.448 23.5365 705.25 24.0469C705.062 24.5469 704.927 25.0729 704.844 25.625C704.823 25.6562 704.802 25.7188 704.781 25.8125C704.771 25.8958 704.76 25.9896 704.75 26.0938C704.74 26.1979 704.729 26.2969 704.719 26.3906C704.708 26.474 704.703 26.5312 704.703 26.5625C704.703 26.6042 704.698 26.7031 704.688 26.8594C704.677 27.0156 704.667 27.1823 704.656 27.3594C704.646 27.5365 704.635 27.7031 704.625 27.8594C704.615 28.0156 704.604 28.1094 704.594 28.1406C704.594 28.1615 704.568 28.2188 704.516 28.3125C704.474 28.4062 704.453 28.4635 704.453 28.4844V28.8125V28.9375C704.453 29.0104 704.458 29.0833 704.469 29.1562C704.479 29.2188 704.521 29.2812 704.594 29.3438C704.604 29.4167 704.625 29.5521 704.656 29.75C704.688 29.9375 704.719 30.1406 704.75 30.3594C704.792 30.5781 704.828 30.7865 704.859 30.9844C704.901 31.1719 704.932 31.3021 704.953 31.375C704.984 31.4583 705.021 31.5312 705.062 31.5938C705.094 31.6458 705.12 31.6979 705.141 31.75C705.172 31.7917 705.188 31.8229 705.188 31.8438C705.198 31.8438 705.214 31.875 705.234 31.9375C705.255 31.9896 705.276 32.0521 705.297 32.125C705.328 32.1875 705.354 32.25 705.375 32.3125C705.396 32.3646 705.417 32.3958 705.438 32.4062C705.458 32.4479 705.5 32.5365 705.562 32.6719C705.635 32.7969 705.714 32.9375 705.797 33.0938C705.891 33.25 705.979 33.401 706.062 33.5469C706.146 33.6927 706.208 33.7969 706.25 33.8594C706.281 33.901 706.38 33.9792 706.547 34.0938C706.714 34.1979 706.896 34.3073 707.094 34.4219C707.302 34.5365 707.495 34.6458 707.672 34.75C707.859 34.8542 707.99 34.9219 708.062 34.9531C708.156 35.0052 708.245 35.0365 708.328 35.0469C708.411 35.0469 708.5 35.0469 708.594 35.0469H708.969C709.344 35.0469 709.708 34.9896 710.062 34.875C710.417 34.7604 710.755 34.6146 711.078 34.4375C711.411 34.2604 711.729 34.0625 712.031 33.8438C712.344 33.6146 712.651 33.3958 712.953 33.1875C712.974 33.1562 713.042 33.0938 713.156 33C713.271 32.9062 713.396 32.8125 713.531 32.7188C713.667 32.625 713.792 32.5417 713.906 32.4688C714.021 32.3854 714.089 32.3385 714.109 32.3281C714.328 32.151 714.562 31.8854 714.812 31.5312C715.062 31.1667 715.318 30.8021 715.578 30.4375C715.849 30.0729 716.125 29.7552 716.406 29.4844C716.688 29.2135 716.969 29.0781 717.25 29.0781C717.458 29.0781 717.609 29.1562 717.703 29.3125C717.797 29.4583 717.844 29.625 717.844 29.8125C717.844 30.125 717.781 30.4271 717.656 30.7188C717.531 31.0104 717.422 31.3125 717.328 31.625C717.161 32.2396 717.01 32.8438 716.875 33.4375C716.74 34.0208 716.63 34.6302 716.547 35.2656C716.474 35.3594 716.401 35.4688 716.328 35.5938C716.255 35.7188 716.167 35.7812 716.062 35.7812C715.833 35.7812 715.682 35.6979 715.609 35.5312C715.536 35.3646 715.49 35.1823 715.469 34.9844C715.448 34.7865 715.417 34.6042 715.375 34.4375C715.344 34.2708 715.245 34.1875 715.078 34.1875C714.922 34.1875 714.771 34.2292 714.625 34.3125C714.49 34.3958 714.354 34.4948 714.219 34.6094C714.083 34.7135 713.948 34.8229 713.812 34.9375C713.677 35.0417 713.542 35.125 713.406 35.1875C712.948 35.375 712.51 35.5521 712.094 35.7188C711.688 35.8854 711.276 36.0312 710.859 36.1562C710.443 36.2917 710.016 36.3958 709.578 36.4688C709.141 36.5521 708.667 36.6042 708.156 36.625C708.146 36.5833 708.089 36.5521 707.984 36.5312C707.891 36.5104 707.833 36.4844 707.812 36.4531C707.469 36.3906 707.161 36.3229 706.891 36.25C706.62 36.1875 706.354 36.1094 706.094 36.0156C705.844 35.9323 705.589 35.8333 705.328 35.7188C705.068 35.5938 704.776 35.4427 704.453 35.2656C704.432 35.2552 704.375 35.224 704.281 35.1719C704.188 35.1198 704.13 35.0781 704.109 35.0469C704.036 34.974 703.911 34.8542 703.734 34.6875C703.568 34.5104 703.385 34.3281 703.188 34.1406C703 33.9531 702.823 33.776 702.656 33.6094C702.5 33.4427 702.391 33.3281 702.328 33.2656C702.255 33.2031 702.188 33.1198 702.125 33.0156C702.073 32.901 702.021 32.7865 701.969 32.6719C701.917 32.5573 701.87 32.4479 701.828 32.3438C701.797 32.2292 701.771 32.1406 701.75 32.0781C701.479 31.4948 701.266 30.9167 701.109 30.3438C700.964 29.7708 700.891 29.1406 700.891 28.4531ZM722.281 32.5938C722.281 32.7812 722.286 32.9792 722.297 33.1875C722.318 33.3854 722.359 33.5677 722.422 33.7344C722.484 33.8906 722.578 34.026 722.703 34.1406C722.839 34.2448 723.021 34.2969 723.25 34.2969C723.5 34.2969 723.74 34.25 723.969 34.1562C724.208 34.0625 724.438 33.9479 724.656 33.8125C724.875 33.6667 725.083 33.5104 725.281 33.3438C725.479 33.1667 725.661 33.0052 725.828 32.8594C725.839 32.8594 725.865 32.849 725.906 32.8281C725.927 32.8177 725.943 32.8021 725.953 32.7812C725.964 32.7708 725.979 32.7396 726 32.6875C726.021 32.6354 726.042 32.5833 726.062 32.5312C726.094 32.4792 726.12 32.4323 726.141 32.3906C726.161 32.3385 726.172 32.3073 726.172 32.2969C726.182 32.2865 726.208 32.2656 726.25 32.2344C726.292 32.1927 726.333 32.151 726.375 32.1094C726.417 32.0677 726.453 32.0312 726.484 32C726.526 31.9583 726.552 31.9323 726.562 31.9219C726.75 31.6823 726.906 31.4271 727.031 31.1562C727.167 30.8854 727.323 30.6354 727.5 30.4062C727.521 30.3854 727.547 30.3542 727.578 30.3125C727.609 30.2604 727.635 30.2135 727.656 30.1719C727.688 30.1302 727.719 30.0833 727.75 30.0312C727.75 30.0104 727.76 29.9323 727.781 29.7969C727.812 29.6615 727.828 29.5833 727.828 29.5625C727.953 29.3125 728.089 29.0677 728.234 28.8281C728.391 28.5885 728.536 28.349 728.672 28.1094C728.818 27.8698 728.943 27.625 729.047 27.375C729.151 27.125 729.229 26.8646 729.281 26.5938C729.281 26.5625 729.286 26.5104 729.297 26.4375C729.307 26.3542 729.318 26.2656 729.328 26.1719C729.349 26.0781 729.365 25.9896 729.375 25.9062C729.385 25.8229 729.391 25.7656 729.391 25.7344C729.401 25.7031 729.417 25.6458 729.438 25.5625C729.469 25.4688 729.5 25.3698 729.531 25.2656C729.562 25.1615 729.589 25.0677 729.609 24.9844C729.63 24.8906 729.641 24.8333 729.641 24.8125C729.641 24.7917 729.646 24.7135 729.656 24.5781C729.677 24.4323 729.688 24.3385 729.688 24.2969C729.688 23.9844 729.609 23.6823 729.453 23.3906C729.297 23.0885 729.089 22.849 728.828 22.6719C728.776 22.651 728.688 22.6354 728.562 22.625C728.438 22.6042 728.354 22.5938 728.312 22.5938C728.292 22.5938 728.255 22.599 728.203 22.6094C728.161 22.6094 728.115 22.6146 728.062 22.625C728.01 22.6354 727.958 22.6458 727.906 22.6562C727.865 22.6562 727.839 22.6615 727.828 22.6719C727.807 22.6719 727.766 22.7031 727.703 22.7656C727.651 22.8177 727.594 22.8802 727.531 22.9531C727.469 23.0156 727.411 23.0781 727.359 23.1406C727.307 23.2031 727.276 23.2344 727.266 23.2344C726.828 23.6302 726.38 24.026 725.922 24.4219C725.464 24.8177 725.078 25.2552 724.766 25.7344C724.755 25.7448 724.729 25.7865 724.688 25.8594C724.656 25.9219 724.615 25.9948 724.562 26.0781C724.521 26.1615 724.479 26.2396 724.438 26.3125C724.396 26.3854 724.37 26.4271 724.359 26.4375C724.234 26.6562 724.12 26.849 724.016 27.0156C723.922 27.1823 723.828 27.3438 723.734 27.5C723.651 27.6562 723.562 27.8229 723.469 28C723.385 28.1667 723.297 28.3646 723.203 28.5938C723.193 28.6042 723.182 28.6354 723.172 28.6875C723.161 28.7292 723.151 28.776 723.141 28.8281C723.13 28.8802 723.12 28.9323 723.109 28.9844C723.099 29.026 723.094 29.0573 723.094 29.0781C723.094 29.1198 723.073 29.1875 723.031 29.2812C723 29.3646 722.984 29.4167 722.984 29.4375C722.859 29.7396 722.75 30.0104 722.656 30.25C722.573 30.4896 722.5 30.7292 722.438 30.9688C722.385 31.2083 722.344 31.4583 722.312 31.7188C722.292 31.9792 722.281 32.2708 722.281 32.5938ZM731.281 25.2188C731.281 25.6042 731.266 25.9427 731.234 26.2344C731.203 26.526 731.161 26.8125 731.109 27.0938C731.057 27.3646 730.995 27.6406 730.922 27.9219C730.849 28.1927 730.771 28.5052 730.688 28.8594C730.688 28.8802 730.682 28.9271 730.672 29C730.661 29.0625 730.651 29.1354 730.641 29.2188C730.63 29.2917 730.62 29.3646 730.609 29.4375C730.599 29.5 730.589 29.5417 730.578 29.5625C730.578 29.5833 730.557 29.6302 730.516 29.7031C730.484 29.7656 730.443 29.8438 730.391 29.9375C730.349 30.0208 730.297 30.1094 730.234 30.2031C730.182 30.2865 730.135 30.3542 730.094 30.4062L730.016 30.5156C730.005 30.5365 729.984 30.5781 729.953 30.6406C729.932 30.6927 729.906 30.7552 729.875 30.8281C729.854 30.8906 729.833 30.9531 729.812 31.0156C729.792 31.0677 729.776 31.099 729.766 31.1094C729.766 31.1094 729.74 31.1406 729.688 31.2031C729.646 31.2552 729.594 31.3177 729.531 31.3906C729.469 31.4635 729.401 31.5417 729.328 31.625C729.266 31.7083 729.214 31.7708 729.172 31.8125L729.062 31.9219C729.042 31.9323 729.01 31.974 728.969 32.0469C728.938 32.1198 728.901 32.1979 728.859 32.2812C728.818 32.3646 728.781 32.4427 728.75 32.5156C728.719 32.5781 728.698 32.6146 728.688 32.625C728.5 32.8854 728.281 33.151 728.031 33.4219C727.781 33.6823 727.516 33.9323 727.234 34.1719C726.953 34.401 726.661 34.6146 726.359 34.8125C726.057 35 725.76 35.151 725.469 35.2656C725.417 35.2865 725.349 35.3073 725.266 35.3281C725.193 35.3385 725.146 35.3438 725.125 35.3438C725.083 35.375 725 35.3958 724.875 35.4062C724.76 35.4062 724.682 35.4062 724.641 35.4062C724.62 35.4167 724.573 35.4375 724.5 35.4688C724.438 35.5 724.365 35.5365 724.281 35.5781C724.208 35.6198 724.135 35.6562 724.062 35.6875C723.99 35.7188 723.938 35.7396 723.906 35.75H723.562C723 35.75 722.49 35.6146 722.031 35.3438C721.583 35.0729 721.224 34.6771 720.953 34.1562C720.839 33.9479 720.76 33.7188 720.719 33.4688C720.688 33.2188 720.604 32.9896 720.469 32.7812V30.625C720.552 30.3854 720.609 30.125 720.641 29.8438C720.672 29.5625 720.698 29.3333 720.719 29.1562C720.75 29.0625 720.781 28.9688 720.812 28.875C720.833 28.8021 720.854 28.7292 720.875 28.6562C720.906 28.5833 720.932 28.526 720.953 28.4844C721.057 28.2448 721.151 28.0052 721.234 27.7656C721.328 27.5156 721.432 27.2865 721.547 27.0781C721.557 27.0469 721.583 26.9948 721.625 26.9219C721.677 26.849 721.729 26.776 721.781 26.7031C721.833 26.6198 721.88 26.5469 721.922 26.4844C721.974 26.4115 722.005 26.3646 722.016 26.3438C722.036 26.3021 722.083 26.2031 722.156 26.0469C722.24 25.8802 722.328 25.7031 722.422 25.5156C722.516 25.3177 722.604 25.1354 722.688 24.9688C722.771 24.8021 722.828 24.6927 722.859 24.6406C722.88 24.6094 722.943 24.5312 723.047 24.4062C723.151 24.2812 723.26 24.151 723.375 24.0156C723.5 23.8698 723.615 23.7344 723.719 23.6094C723.823 23.4844 723.885 23.4062 723.906 23.375C724.125 23.0938 724.365 22.8229 724.625 22.5625C724.885 22.3021 725.161 22.0729 725.453 21.875C725.745 21.6771 726.057 21.5208 726.391 21.4062C726.724 21.2812 727.078 21.2188 727.453 21.2188H727.984C727.995 21.2188 728.021 21.2344 728.062 21.2656C728.104 21.2865 728.151 21.3125 728.203 21.3438C728.255 21.375 728.302 21.401 728.344 21.4219C728.385 21.4427 728.411 21.4531 728.422 21.4531C728.453 21.4635 728.505 21.474 728.578 21.4844C728.651 21.4948 728.729 21.5104 728.812 21.5312C728.896 21.5417 728.969 21.5521 729.031 21.5625C729.104 21.5729 729.151 21.5833 729.172 21.5938C729.182 21.6042 729.229 21.6302 729.312 21.6719C729.396 21.7135 729.484 21.7604 729.578 21.8125C729.682 21.8646 729.781 21.9167 729.875 21.9688C729.969 22.0104 730.042 22.0469 730.094 22.0781C730.115 22.0781 730.141 22.0938 730.172 22.125C730.203 22.1458 730.234 22.1667 730.266 22.1875C730.547 22.6146 730.786 23.0938 730.984 23.625C731.182 24.1562 731.281 24.6875 731.281 25.2188ZM734.391 33.1406C734.391 33.1927 734.391 33.2604 734.391 33.3438C734.391 33.4271 734.391 33.5156 734.391 33.6094C734.391 33.6927 734.391 33.7708 734.391 33.8438C734.401 33.9062 734.411 33.9427 734.422 33.9531C734.422 33.974 734.432 34.0156 734.453 34.0781C734.484 34.1302 734.516 34.1823 734.547 34.2344C734.589 34.2865 734.625 34.3333 734.656 34.375C734.688 34.4167 734.708 34.4375 734.719 34.4375C734.74 34.4479 734.76 34.4531 734.781 34.4531H734.875C735.115 34.4531 735.375 34.4219 735.656 34.3594C735.938 34.2865 736.182 34.1927 736.391 34.0781C736.589 33.9844 736.771 33.875 736.938 33.75C737.104 33.6146 737.266 33.4792 737.422 33.3438C737.578 33.1979 737.734 33.0573 737.891 32.9219C738.057 32.776 738.24 32.651 738.438 32.5469C738.5 32.4844 738.594 32.3854 738.719 32.25C738.854 32.1146 739 31.9635 739.156 31.7969C739.312 31.6302 739.474 31.4531 739.641 31.2656C739.818 31.0781 739.984 30.901 740.141 30.7344C740.297 30.5677 740.432 30.4167 740.547 30.2812C740.672 30.1354 740.766 30.0312 740.828 29.9688C740.859 29.9375 740.911 29.875 740.984 29.7812C741.068 29.6875 741.151 29.5885 741.234 29.4844C741.328 29.3698 741.411 29.2656 741.484 29.1719C741.568 29.0677 741.625 29 741.656 28.9688C741.656 28.9583 741.661 28.9375 741.672 28.9062C741.693 28.8646 741.708 28.8229 741.719 28.7812C741.74 28.7396 741.755 28.7031 741.766 28.6719C741.786 28.6302 741.797 28.6042 741.797 28.5938C741.974 28.2292 742.161 27.8698 742.359 27.5156C742.557 27.1615 742.74 26.8073 742.906 26.4531C743.083 26.0885 743.224 25.7188 743.328 25.3438C743.443 24.9688 743.5 24.5729 743.5 24.1562C743.5 23.8542 743.396 23.6146 743.188 23.4375C742.99 23.25 742.74 23.1562 742.438 23.1562H742.125C742.073 23.1771 742 23.2031 741.906 23.2344C741.823 23.2656 741.729 23.3021 741.625 23.3438C741.531 23.3854 741.443 23.4219 741.359 23.4531C741.286 23.4844 741.234 23.5104 741.203 23.5312C741.172 23.5521 741.115 23.6042 741.031 23.6875C740.948 23.7708 740.859 23.8646 740.766 23.9688C740.672 24.0625 740.583 24.1562 740.5 24.25C740.427 24.3333 740.38 24.3854 740.359 24.4062C740.349 24.4167 740.312 24.4375 740.25 24.4688C740.198 24.4896 740.135 24.5208 740.062 24.5625C739.99 24.5938 739.922 24.6302 739.859 24.6719C739.797 24.7031 739.755 24.7292 739.734 24.75C739.078 25.3438 738.484 25.9688 737.953 26.625C737.432 27.2708 736.911 27.9531 736.391 28.6719C736.255 28.8906 736.109 29.1094 735.953 29.3281C735.797 29.5469 735.672 29.7604 735.578 29.9688C735.568 30.0104 735.536 30.0885 735.484 30.2031C735.443 30.3073 735.396 30.4219 735.344 30.5469C735.292 30.6719 735.24 30.7865 735.188 30.8906C735.146 30.9844 735.115 31.0469 735.094 31.0781C735.083 31.099 735.057 31.1458 735.016 31.2188C734.984 31.2812 734.943 31.3594 734.891 31.4531C734.849 31.5365 734.807 31.6146 734.766 31.6875C734.734 31.7604 734.719 31.8021 734.719 31.8125C734.635 32.0312 734.557 32.25 734.484 32.4688C734.422 32.6771 734.391 32.901 734.391 33.1406ZM731.734 33.6719C731.734 33.026 731.828 32.3698 732.016 31.7031C732.214 31.026 732.474 30.3594 732.797 29.7031C733.13 29.0365 733.521 28.3906 733.969 27.7656C734.417 27.1302 734.891 26.5417 735.391 26C735.901 25.4479 736.422 24.9427 736.953 24.4844C737.495 24.026 738.026 23.6406 738.547 23.3281C738.849 23.1406 739.161 22.9479 739.484 22.75C739.807 22.5521 740.141 22.3802 740.484 22.2344C740.828 22.0781 741.177 21.9583 741.531 21.875C741.896 21.7812 742.266 21.75 742.641 21.7812C742.703 21.7812 742.802 21.7917 742.938 21.8125C743.083 21.8229 743.24 21.8385 743.406 21.8594C743.573 21.8802 743.729 21.901 743.875 21.9219C744.031 21.9427 744.141 21.9583 744.203 21.9688C744.297 21.9583 744.365 21.9271 744.406 21.875C744.458 21.8229 744.495 21.7656 744.516 21.7031C744.536 21.6302 744.557 21.5573 744.578 21.4844C744.599 21.401 744.635 21.3281 744.688 21.2656C744.688 21.2448 744.724 21.2083 744.797 21.1562C744.87 21.1042 744.906 21.0677 744.906 21.0469C744.938 20.9844 744.964 20.9062 744.984 20.8125C745.005 20.7188 745.026 20.625 745.047 20.5312C745.068 20.4375 745.089 20.349 745.109 20.2656C745.13 20.1823 745.151 20.1198 745.172 20.0781C745.182 20.0469 745.208 19.9635 745.25 19.8281C745.292 19.6823 745.339 19.526 745.391 19.3594C745.443 19.1927 745.49 19.0417 745.531 18.9062C745.573 18.7604 745.599 18.6719 745.609 18.6406C745.62 18.5885 745.646 18.474 745.688 18.2969C745.74 18.1198 745.792 17.9323 745.844 17.7344C745.906 17.5365 745.964 17.349 746.016 17.1719C746.068 16.9948 746.104 16.8802 746.125 16.8281C746.125 16.8073 746.13 16.7708 746.141 16.7188C746.161 16.6667 746.182 16.6354 746.203 16.625C746.224 16.6146 746.255 16.5729 746.297 16.5C746.349 16.4271 746.401 16.349 746.453 16.2656C746.516 16.1823 746.568 16.1042 746.609 16.0312C746.651 15.9583 746.677 15.9115 746.688 15.8906C746.688 15.8698 746.703 15.8177 746.734 15.7344C746.766 15.6406 746.802 15.5677 746.844 15.5156C746.854 15.4844 746.87 15.4219 746.891 15.3281C746.911 15.2344 746.932 15.1354 746.953 15.0312C746.984 14.9271 747.01 14.8333 747.031 14.75C747.052 14.6562 747.062 14.5938 747.062 14.5625V14.5156V14.4219C747.052 14.4115 747.031 14.3802 747 14.3281C746.969 14.2656 746.948 14.2292 746.938 14.2188H746.344C746.25 14.2188 746.109 14.2135 745.922 14.2031C745.734 14.1927 745.542 14.1823 745.344 14.1719C745.156 14.151 744.984 14.1354 744.828 14.125C744.672 14.1042 744.573 14.0885 744.531 14.0781C744.458 14.0677 744.375 14.0521 744.281 14.0312C744.188 14 744.099 13.9583 744.016 13.9062C743.932 13.8438 743.859 13.776 743.797 13.7031C743.745 13.6198 743.719 13.5208 743.719 13.4062C743.719 13.3438 743.755 13.2865 743.828 13.2344C743.911 13.1719 744 13.1198 744.094 13.0781C744.198 13.026 744.302 12.9896 744.406 12.9688C744.51 12.9375 744.594 12.9219 744.656 12.9219C745.312 12.9219 745.953 12.8906 746.578 12.8281C747.214 12.7656 747.818 12.724 748.391 12.7031C748.661 12.6302 748.859 12.5885 748.984 12.5781C749.12 12.5677 749.255 12.5625 749.391 12.5625C749.484 12.5625 749.583 12.5729 749.688 12.5938C749.802 12.6042 749.901 12.6354 749.984 12.6875C750.078 12.7292 750.156 12.7917 750.219 12.875C750.281 12.9583 750.312 13.0729 750.312 13.2188C750.312 13.4583 750.25 13.7031 750.125 13.9531C750.01 14.2031 749.911 14.4427 749.828 14.6719C749.568 15.401 749.312 16.1458 749.062 16.9062C748.812 17.6562 748.536 18.3906 748.234 19.1094C748.234 19.1198 748.219 19.1615 748.188 19.2344C748.167 19.3073 748.156 19.3542 748.156 19.375C748.104 19.4688 748.026 19.625 747.922 19.8438C747.828 20.0625 747.729 20.2917 747.625 20.5312C747.521 20.7708 747.427 20.9948 747.344 21.2031C747.271 21.4115 747.224 21.5521 747.203 21.625C747.172 21.6667 747.141 21.7292 747.109 21.8125C747.078 21.8958 747.062 21.9479 747.062 21.9688C747.031 22.1146 746.99 22.3021 746.938 22.5312C746.885 22.75 746.823 22.9792 746.75 23.2188C746.688 23.4479 746.62 23.6719 746.547 23.8906C746.474 24.099 746.406 24.2708 746.344 24.4062C746.333 24.4167 746.318 24.4375 746.297 24.4688C746.276 24.5 746.25 24.5365 746.219 24.5781C746.198 24.6094 746.177 24.6458 746.156 24.6875C746.135 24.7188 746.125 24.7396 746.125 24.75C746.115 24.7708 746.099 24.8073 746.078 24.8594C746.068 24.9115 746.052 24.974 746.031 25.0469C746.01 25.1094 745.99 25.1719 745.969 25.2344C745.958 25.2865 745.953 25.3177 745.953 25.3281C745.953 25.3698 745.938 25.4375 745.906 25.5312C745.885 25.6146 745.865 25.6719 745.844 25.7031C745.74 25.9844 745.667 26.2656 745.625 26.5469C745.583 26.8177 745.505 27.0938 745.391 27.375C745.38 27.3958 745.354 27.4427 745.312 27.5156C745.281 27.5781 745.245 27.651 745.203 27.7344C745.161 27.8177 745.12 27.8958 745.078 27.9688C745.047 28.0312 745.026 28.0677 745.016 28.0781C744.901 28.3385 744.812 28.5885 744.75 28.8281C744.688 29.0573 744.615 29.2969 744.531 29.5469C744.385 30.0885 744.224 30.6094 744.047 31.1094C743.87 31.599 743.714 32.1094 743.578 32.6406C743.557 32.6719 743.542 32.7031 743.531 32.7344C743.51 32.7552 743.495 32.7812 743.484 32.8125C743.484 32.8438 743.479 32.8698 743.469 32.8906C743.469 32.9115 743.432 32.9688 743.359 33.0625C743.286 33.1562 743.245 33.2188 743.234 33.25C743.234 33.2604 743.24 33.3125 743.25 33.4062C743.271 33.5 743.281 33.5521 743.281 33.5625C743.667 33.5625 744.057 33.4792 744.453 33.3125C744.849 33.1354 745.161 32.9115 745.391 32.6406C745.703 32.2656 746.021 31.9167 746.344 31.5938C746.667 31.2708 747.026 30.9479 747.422 30.625C747.505 30.5521 747.573 30.5104 747.625 30.5C747.677 30.4896 747.75 30.4844 747.844 30.4844C747.99 30.4844 748.078 30.5156 748.109 30.5781C748.141 30.6406 748.156 30.7292 748.156 30.8438C748.156 30.9583 748.151 31.0365 748.141 31.0781C748.13 31.1198 748.099 31.2031 748.047 31.3281C748.016 31.3594 747.948 31.4427 747.844 31.5781C747.74 31.7031 747.63 31.8438 747.516 32C747.411 32.1458 747.312 32.2865 747.219 32.4219C747.135 32.5469 747.083 32.6198 747.062 32.6406C747.052 32.6406 747.031 32.6771 747 32.75C746.969 32.8229 746.948 32.8698 746.938 32.8906C746.906 32.9323 746.828 33.0104 746.703 33.125C746.589 33.2292 746.51 33.3021 746.469 33.3438C746.458 33.3438 746.417 33.3698 746.344 33.4219C746.271 33.4635 746.224 33.4844 746.203 33.4844C746.109 33.5677 746.01 33.6771 745.906 33.8125C745.812 33.9375 745.714 34.0677 745.609 34.2031C745.505 34.3385 745.401 34.4635 745.297 34.5781C745.193 34.6927 745.099 34.7708 745.016 34.8125C744.797 34.9583 744.568 35.1042 744.328 35.25C744.099 35.3854 743.859 35.5104 743.609 35.625C743.37 35.7292 743.12 35.8177 742.859 35.8906C742.609 35.9635 742.354 36 742.094 36H741.938C741.604 35.8854 741.333 35.6927 741.125 35.4219C740.927 35.1406 740.828 34.8177 740.828 34.4531V34.3281C740.87 34.0156 740.927 33.7083 741 33.4062C741.083 33.1042 741.161 32.8021 741.234 32.5C741.307 32.1979 741.37 31.8958 741.422 31.5938C741.474 31.2812 741.5 30.9635 741.5 30.6406C741.479 30.6406 741.448 30.6406 741.406 30.6406C741.365 30.6302 741.333 30.625 741.312 30.625L741.203 30.7344C741.016 30.9635 740.807 31.1927 740.578 31.4219C740.359 31.651 740.161 31.8958 739.984 32.1562C739.984 32.1771 739.969 32.2188 739.938 32.2812C739.906 32.3333 739.87 32.3958 739.828 32.4688C739.786 32.5312 739.75 32.5885 739.719 32.6406C739.688 32.6927 739.667 32.724 739.656 32.7344C739.625 32.776 739.557 32.8542 739.453 32.9688C739.359 33.0729 739.255 33.1875 739.141 33.3125C739.036 33.4271 738.938 33.5365 738.844 33.6406C738.76 33.7448 738.719 33.8125 738.719 33.8438C738.688 33.8542 738.635 33.9115 738.562 34.0156C738.5 34.1094 738.458 34.1667 738.438 34.1875C738.375 34.2708 738.25 34.3854 738.062 34.5312C737.885 34.6771 737.688 34.8229 737.469 34.9688C737.25 35.1146 737.036 35.25 736.828 35.375C736.63 35.5 736.484 35.5833 736.391 35.625C736.318 35.6771 736.203 35.7344 736.047 35.7969C735.901 35.8594 735.75 35.9219 735.594 35.9844C735.448 36.0469 735.312 36.1042 735.188 36.1562C735.062 36.2083 734.984 36.2396 734.953 36.25H734.281C733.396 36.25 732.75 36.0417 732.344 35.625C731.938 35.2083 731.734 34.5573 731.734 33.6719ZM752.547 26.8125C752.547 27.0208 752.609 27.1458 752.734 27.1875C752.87 27.2188 753.01 27.2344 753.156 27.2344H753.516C753.536 27.2344 753.589 27.2135 753.672 27.1719C753.766 27.1302 753.865 27.0833 753.969 27.0312C754.073 26.9688 754.167 26.9167 754.25 26.875C754.344 26.8229 754.406 26.7917 754.438 26.7812C754.448 26.7708 754.479 26.7604 754.531 26.75C754.594 26.7396 754.656 26.7292 754.719 26.7188C754.792 26.7083 754.854 26.6979 754.906 26.6875C754.969 26.6771 755.01 26.6615 755.031 26.6406L755.156 26.5625C755.188 26.5417 755.245 26.5052 755.328 26.4531C755.411 26.401 755.5 26.349 755.594 26.2969C755.688 26.2448 755.771 26.1979 755.844 26.1562C755.927 26.1042 755.979 26.0677 756 26.0469C756.344 25.8177 756.693 25.5625 757.047 25.2812C757.401 25 757.719 24.6979 758 24.375C758.281 24.0417 758.51 23.6823 758.688 23.2969C758.875 22.901 758.969 22.4688 758.969 22C758.969 21.9375 758.943 21.875 758.891 21.8125C758.839 21.7396 758.776 21.6771 758.703 21.625C758.63 21.5729 758.552 21.5312 758.469 21.5C758.385 21.4583 758.312 21.4375 758.25 21.4375C758.188 21.4479 758.125 21.4583 758.062 21.4688C758.01 21.4792 757.953 21.4896 757.891 21.5C757.839 21.5 757.802 21.5052 757.781 21.5156C757.062 21.7448 756.417 22.0833 755.844 22.5312C755.281 22.9792 754.776 23.5208 754.328 24.1562C754.214 24.3333 754.12 24.5 754.047 24.6562C753.974 24.8125 753.87 24.9635 753.734 25.1094C753.526 25.3698 753.312 25.6406 753.094 25.9219C752.875 26.1927 752.693 26.4792 752.547 26.7812V26.8125ZM751.078 25.1094C751.109 25.1094 751.141 25.0938 751.172 25.0625C751.203 25.0208 751.229 25 751.25 25C751.323 24.8854 751.38 24.7969 751.422 24.7344C751.474 24.6615 751.521 24.599 751.562 24.5469C751.604 24.4844 751.651 24.4271 751.703 24.375C751.766 24.3229 751.849 24.25 751.953 24.1562C751.953 24.1458 751.974 24.125 752.016 24.0938C752.068 24.0625 752.12 24.026 752.172 23.9844C752.224 23.9427 752.271 23.9062 752.312 23.875C752.365 23.8333 752.396 23.8021 752.406 23.7812C752.427 23.7604 752.469 23.7135 752.531 23.6406C752.594 23.5573 752.656 23.4688 752.719 23.375C752.792 23.2812 752.854 23.1979 752.906 23.125C752.969 23.0417 753.01 22.9896 753.031 22.9688C753.271 22.6458 753.562 22.3958 753.906 22.2188C754.25 22.0312 754.589 21.8385 754.922 21.6406C754.943 21.6302 755 21.599 755.094 21.5469C755.188 21.4844 755.245 21.4479 755.266 21.4375C755.766 21.0729 756.307 20.8385 756.891 20.7344C757.474 20.6198 758.062 20.5625 758.656 20.5625H759.734C760.036 20.6979 760.333 20.8802 760.625 21.1094C760.927 21.3385 761.125 21.6354 761.219 22C761.229 22.0312 761.234 22.0885 761.234 22.1719C761.245 22.2552 761.25 22.3385 761.25 22.4219C761.25 22.5052 761.25 22.5885 761.25 22.6719C761.25 22.7448 761.25 22.7969 761.25 22.8281C761.25 22.8906 761.25 22.9688 761.25 23.0625C761.25 23.1562 761.25 23.25 761.25 23.3438C761.25 23.4375 761.245 23.5208 761.234 23.5938C761.234 23.6562 761.229 23.6927 761.219 23.7031L761.125 23.9531C761.104 24.0156 761.083 24.0833 761.062 24.1562C761.042 24.2188 761.021 24.2656 761 24.2969C760.958 24.3802 760.896 24.4948 760.812 24.6406C760.729 24.776 760.635 24.9167 760.531 25.0625C760.427 25.1979 760.323 25.3281 760.219 25.4531C760.115 25.5677 760.026 25.651 759.953 25.7031C759.922 25.724 759.859 25.7708 759.766 25.8438C759.682 25.9062 759.615 25.9479 759.562 25.9688C759.562 25.9688 759.536 25.9792 759.484 26C759.443 26.0208 759.396 26.0417 759.344 26.0625C759.292 26.0833 759.24 26.1094 759.188 26.1406C759.146 26.1615 759.12 26.1771 759.109 26.1875C759.089 26.2083 759.047 26.276 758.984 26.3906C758.922 26.4948 758.88 26.5521 758.859 26.5625C758.714 26.6875 758.531 26.8229 758.312 26.9688C758.104 27.1042 757.875 27.2344 757.625 27.3594C757.385 27.474 757.146 27.5781 756.906 27.6719C756.667 27.7552 756.448 27.8125 756.25 27.8438C756.229 27.8542 756.167 27.8594 756.062 27.8594C755.979 27.8594 755.896 27.8594 755.812 27.8594C755.74 27.849 755.693 27.8438 755.672 27.8438C755.63 27.8646 755.531 27.8854 755.375 27.9062C755.229 27.9271 755.115 27.9479 755.031 27.9688C755.01 27.9688 754.938 27.9844 754.812 28.0156C754.688 28.0365 754.615 28.0469 754.594 28.0469C754.542 28.0573 754.458 28.0729 754.344 28.0938C754.229 28.1042 754.104 28.1198 753.969 28.1406C753.844 28.1615 753.719 28.1823 753.594 28.2031C753.479 28.2135 753.391 28.2188 753.328 28.2188C753.234 28.2188 753.135 28.2135 753.031 28.2031C752.927 28.1927 752.828 28.1875 752.734 28.1875C752.568 28.1875 752.411 28.2188 752.266 28.2812C752.12 28.3333 752.016 28.4635 751.953 28.6719C751.932 28.7552 751.911 28.8906 751.891 29.0781C751.87 29.2552 751.849 29.4479 751.828 29.6562C751.807 29.8542 751.786 30.0469 751.766 30.2344C751.745 30.4115 751.734 30.5417 751.734 30.625C751.703 30.7083 751.677 30.7812 751.656 30.8438C751.635 30.8958 751.62 30.9479 751.609 31C751.599 31.0521 751.594 31.0885 751.594 31.1094C751.594 31.1198 751.599 31.151 751.609 31.2031C751.63 31.2552 751.646 31.3125 751.656 31.375C751.677 31.4375 751.693 31.5 751.703 31.5625C751.724 31.6146 751.734 31.6406 751.734 31.6406C751.734 31.6719 751.74 31.7448 751.75 31.8594C751.76 31.9635 751.771 32.0781 751.781 32.2031C751.792 32.3177 751.802 32.4271 751.812 32.5312C751.823 32.6354 751.833 32.7031 751.844 32.7344C751.844 32.7865 751.87 32.8698 751.922 32.9844C751.984 33.099 752.026 33.1667 752.047 33.1875C752.411 33.5 752.807 33.6823 753.234 33.7344C753.672 33.7865 754.109 33.8125 754.547 33.8125C754.901 33.8125 755.208 33.6875 755.469 33.4375C755.729 33.1875 755.969 32.9115 756.188 32.6094C756.406 32.3073 756.609 32.0312 756.797 31.7812C756.995 31.5312 757.198 31.4062 757.406 31.4062C757.552 31.4062 757.651 31.4792 757.703 31.625C757.755 31.7708 757.781 31.9062 757.781 32.0312C757.781 32.2708 757.724 32.5156 757.609 32.7656C757.505 33.0156 757.375 33.2604 757.219 33.5C757.062 33.7396 756.896 33.9688 756.719 34.1875C756.542 34.3958 756.385 34.5833 756.25 34.75C756.219 34.7812 756.172 34.8333 756.109 34.9062C756.057 34.9688 756.021 35 756 35C755.969 35.0208 755.896 35.0625 755.781 35.125C755.667 35.1771 755.542 35.2396 755.406 35.3125C755.271 35.375 755.146 35.4375 755.031 35.5C754.917 35.5521 754.844 35.5938 754.812 35.625C754.792 35.625 754.755 35.6615 754.703 35.7344C754.651 35.8073 754.615 35.8438 754.594 35.8438C754.479 35.8854 754.385 35.9115 754.312 35.9219C754.24 35.9219 754.172 35.9271 754.109 35.9375C754.047 35.9375 753.984 35.9479 753.922 35.9688C753.87 35.9792 753.807 36.0156 753.734 36.0781H752.891C752.516 36.0781 752.188 36.0521 751.906 36C751.635 35.9375 751.391 35.8385 751.172 35.7031C750.964 35.5573 750.771 35.375 750.594 35.1562C750.417 34.9271 750.234 34.6406 750.047 34.2969C750.026 34.2656 749.995 34.2135 749.953 34.1406C749.911 34.0677 749.87 33.9948 749.828 33.9219C749.797 33.8385 749.766 33.7656 749.734 33.7031C749.703 33.6302 749.682 33.5833 749.672 33.5625C749.661 33.5208 749.641 33.4635 749.609 33.3906C749.589 33.3177 749.568 33.2448 749.547 33.1719C749.526 33.0885 749.505 33.0208 749.484 32.9688C749.464 32.9062 749.453 32.8698 749.453 32.8594C749.432 32.5573 749.411 32.25 749.391 31.9375C749.38 31.625 749.375 31.3125 749.375 31C749.375 30.7604 749.38 30.5156 749.391 30.2656C749.411 30.0052 749.432 29.7552 749.453 29.5156C749.484 29.276 749.531 29.0729 749.594 28.9062C749.667 28.7396 749.74 28.5521 749.812 28.3438C749.823 28.3125 749.844 28.2396 749.875 28.125C749.906 28 749.943 27.8698 749.984 27.7344C750.026 27.599 750.062 27.474 750.094 27.3594C750.125 27.2344 750.141 27.1615 750.141 27.1406C750.182 27.0573 750.245 26.9219 750.328 26.7344C750.422 26.5365 750.516 26.3333 750.609 26.125C750.714 25.9062 750.807 25.7031 750.891 25.5156C750.984 25.3177 751.047 25.1823 751.078 25.1094Z" fill="black" fill-opacity="0.51"/>
</svg>
