<svg width="459" height="31" viewBox="0 0 459 31" fill="none" xmlns="http://www.w3.org/2000/svg">
<path d="M0.826705 3.22727V0.727272H18.2812V3.22727H10.9631V24H8.14489V3.22727H0.826705ZM24.9489 13.5V24H22.267V0.727272H24.9489V9.27273H25.1761C25.5852 8.37121 26.1989 7.6553 27.017 7.125C27.8428 6.58712 28.9413 6.31818 30.3125 6.31818C31.5019 6.31818 32.5436 6.55682 33.4375 7.03409C34.3314 7.50379 35.0246 8.22727 35.517 9.20455C36.017 10.1742 36.267 11.4091 36.267 12.9091V24H33.5852V13.0909C33.5852 11.7045 33.2254 10.6326 32.5057 9.875C31.7936 9.10985 30.8049 8.72727 29.5398 8.72727C28.661 8.72727 27.8731 8.91288 27.1761 9.28409C26.4867 9.6553 25.9413 10.197 25.5398 10.9091C25.1458 11.6212 24.9489 12.4848 24.9489 13.5ZM48.4915 24.3636C46.8097 24.3636 45.3589 23.9924 44.1392 23.25C42.9271 22.5 41.9915 21.4545 41.3324 20.1136C40.6809 18.7652 40.3551 17.197 40.3551 15.4091C40.3551 13.6212 40.6809 12.0455 41.3324 10.6818C41.9915 9.31061 42.9081 8.24242 44.0824 7.47727C45.2642 6.70455 46.643 6.31818 48.2188 6.31818C49.1278 6.31818 50.0256 6.4697 50.9119 6.77273C51.7983 7.07576 52.6051 7.56818 53.3324 8.25C54.0597 8.92424 54.6392 9.81818 55.071 10.9318C55.5028 12.0455 55.7188 13.4167 55.7188 15.0455V16.1818H42.2642V13.8636H52.9915C52.9915 12.8788 52.7945 12 52.4006 11.2273C52.0142 10.4545 51.4612 9.8447 50.7415 9.39773C50.0294 8.95076 49.1884 8.72727 48.2188 8.72727C47.1506 8.72727 46.2263 8.99242 45.446 9.52273C44.6733 10.0455 44.0786 10.7273 43.6619 11.5682C43.2453 12.4091 43.0369 13.3106 43.0369 14.2727V15.8182C43.0369 17.1364 43.2642 18.2538 43.7188 19.1705C44.1809 20.0795 44.821 20.7727 45.6392 21.25C46.4574 21.7197 47.4081 21.9545 48.4915 21.9545C49.196 21.9545 49.8324 21.8561 50.4006 21.6591C50.9763 21.4545 51.4725 21.1515 51.8892 20.75C52.3059 20.3409 52.6278 19.8333 52.8551 19.2273L55.446 19.9545C55.1733 20.8333 54.715 21.6061 54.071 22.2727C53.4271 22.9318 52.6316 23.447 51.6847 23.8182C50.7377 24.1818 49.6733 24.3636 48.4915 24.3636ZM81.1619 10.4545L78.7528 11.1364C78.6013 10.7348 78.3778 10.3447 78.0824 9.96591C77.7945 9.57955 77.4006 9.26136 76.9006 9.01136C76.4006 8.76136 75.7604 8.63636 74.9801 8.63636C73.9119 8.63636 73.0218 8.88258 72.3097 9.375C71.6051 9.85985 71.2528 10.4773 71.2528 11.2273C71.2528 11.8939 71.4953 12.4205 71.9801 12.8068C72.465 13.1932 73.2225 13.5152 74.2528 13.7727L76.8438 14.4091C78.4044 14.7879 79.5672 15.3674 80.3324 16.1477C81.0975 16.9205 81.4801 17.9167 81.4801 19.1364C81.4801 20.1364 81.1922 21.0303 80.6165 21.8182C80.0483 22.6061 79.2528 23.2273 78.2301 23.6818C77.2074 24.1364 76.018 24.3636 74.6619 24.3636C72.8816 24.3636 71.4081 23.9773 70.2415 23.2045C69.0748 22.4318 68.3362 21.303 68.0256 19.8182L70.571 19.1818C70.8134 20.1212 71.2718 20.8258 71.946 21.2955C72.6278 21.7652 73.518 22 74.6165 22C75.8665 22 76.8589 21.7348 77.5938 21.2045C78.3362 20.6667 78.7074 20.0227 78.7074 19.2727C78.7074 18.6667 78.4953 18.1591 78.071 17.75C77.6468 17.3333 76.9953 17.0227 76.1165 16.8182L73.2074 16.1364C71.6089 15.7576 70.4347 15.1705 69.6847 14.375C68.9422 13.572 68.571 12.5682 68.571 11.3636C68.571 10.3788 68.8475 9.50758 69.4006 8.75C69.9612 7.99242 70.7225 7.39773 71.6847 6.96591C72.6544 6.53409 73.7528 6.31818 74.9801 6.31818C76.7074 6.31818 78.0634 6.69697 79.0483 7.45454C80.0407 8.21212 80.7453 9.21212 81.1619 10.4545ZM92.608 24.3636C91.0322 24.3636 89.6496 23.9886 88.4602 23.2386C87.2784 22.4886 86.3542 21.4394 85.6875 20.0909C85.0284 18.7424 84.6989 17.1667 84.6989 15.3636C84.6989 13.5455 85.0284 11.9583 85.6875 10.6023C86.3542 9.24621 87.2784 8.19318 88.4602 7.44318C89.6496 6.69318 91.0322 6.31818 92.608 6.31818C94.1837 6.31818 95.5625 6.69318 96.7443 7.44318C97.9337 8.19318 98.858 9.24621 99.517 10.6023C100.184 11.9583 100.517 13.5455 100.517 15.3636C100.517 17.1667 100.184 18.7424 99.517 20.0909C98.858 21.4394 97.9337 22.4886 96.7443 23.2386C95.5625 23.9886 94.1837 24.3636 92.608 24.3636ZM92.608 21.9545C93.8049 21.9545 94.7898 21.6477 95.5625 21.0341C96.3352 20.4205 96.9072 19.6136 97.2784 18.6136C97.6496 17.6136 97.8352 16.5303 97.8352 15.3636C97.8352 14.197 97.6496 13.1098 97.2784 12.1023C96.9072 11.0947 96.3352 10.2803 95.5625 9.65909C94.7898 9.03788 93.8049 8.72727 92.608 8.72727C91.411 8.72727 90.4261 9.03788 89.6534 9.65909C88.8807 10.2803 88.3087 11.0947 87.9375 12.1023C87.5663 13.1098 87.3807 14.197 87.3807 15.3636C87.3807 16.5303 87.5663 17.6136 87.9375 18.6136C88.3087 19.6136 88.8807 20.4205 89.6534 21.0341C90.4261 21.6477 91.411 21.9545 92.608 21.9545ZM107.293 0.727272V24H104.611V0.727272H107.293ZM123.205 16.8636V6.54545H125.886V24H123.205V21.0455H123.023C122.614 21.9318 121.977 22.6856 121.114 23.3068C120.25 23.9205 119.159 24.2273 117.841 24.2273C116.75 24.2273 115.78 23.9886 114.932 23.5114C114.083 23.0265 113.417 22.2992 112.932 21.3295C112.447 20.3523 112.205 19.1212 112.205 17.6364V6.54545H114.886V17.4545C114.886 18.7273 115.242 19.7424 115.955 20.5C116.674 21.2576 117.591 21.6364 118.705 21.6364C119.371 21.6364 120.049 21.4659 120.739 21.125C121.436 20.7841 122.019 20.2614 122.489 19.5568C122.966 18.8523 123.205 17.9545 123.205 16.8636ZM138.389 6.54545V8.81818H129.344V6.54545H138.389ZM131.98 2.36364H134.662V19C134.662 19.7576 134.772 20.3258 134.991 20.7045C135.219 21.0758 135.507 21.3258 135.855 21.4545C136.211 21.5758 136.586 21.6364 136.98 21.6364C137.276 21.6364 137.518 21.6212 137.707 21.5909C137.897 21.553 138.048 21.5227 138.162 21.5L138.707 23.9091C138.526 23.9773 138.272 24.0455 137.946 24.1136C137.62 24.1894 137.207 24.2273 136.707 24.2273C135.95 24.2273 135.207 24.0644 134.48 23.7386C133.76 23.4129 133.162 22.9167 132.685 22.25C132.215 21.5833 131.98 20.7424 131.98 19.7273V2.36364ZM142.423 24V6.54545H145.105V24H142.423ZM143.787 3.63636C143.264 3.63636 142.813 3.45833 142.435 3.10227C142.063 2.74621 141.878 2.31818 141.878 1.81818C141.878 1.31818 142.063 0.890151 142.435 0.53409C142.813 0.17803 143.264 0 143.787 0C144.31 0 144.757 0.17803 145.128 0.53409C145.507 0.890151 145.696 1.31818 145.696 1.81818C145.696 2.31818 145.507 2.74621 145.128 3.10227C144.757 3.45833 144.31 3.63636 143.787 3.63636ZM157.108 24.3636C155.532 24.3636 154.15 23.9886 152.96 23.2386C151.778 22.4886 150.854 21.4394 150.188 20.0909C149.528 18.7424 149.199 17.1667 149.199 15.3636C149.199 13.5455 149.528 11.9583 150.188 10.6023C150.854 9.24621 151.778 8.19318 152.96 7.44318C154.15 6.69318 155.532 6.31818 157.108 6.31818C158.684 6.31818 160.063 6.69318 161.244 7.44318C162.434 8.19318 163.358 9.24621 164.017 10.6023C164.684 11.9583 165.017 13.5455 165.017 15.3636C165.017 17.1667 164.684 18.7424 164.017 20.0909C163.358 21.4394 162.434 22.4886 161.244 23.2386C160.063 23.9886 158.684 24.3636 157.108 24.3636ZM157.108 21.9545C158.305 21.9545 159.29 21.6477 160.062 21.0341C160.835 20.4205 161.407 19.6136 161.778 18.6136C162.15 17.6136 162.335 16.5303 162.335 15.3636C162.335 14.197 162.15 13.1098 161.778 12.1023C161.407 11.0947 160.835 10.2803 160.062 9.65909C159.29 9.03788 158.305 8.72727 157.108 8.72727C155.911 8.72727 154.926 9.03788 154.153 9.65909C153.381 10.2803 152.809 11.0947 152.438 12.1023C152.066 13.1098 151.881 14.197 151.881 15.3636C151.881 16.5303 152.066 17.6136 152.438 18.6136C152.809 19.6136 153.381 20.4205 154.153 21.0341C154.926 21.6477 155.911 21.9545 157.108 21.9545ZM171.793 13.5V24H169.111V6.54545H171.702V9.27273H171.929C172.338 8.38636 172.959 7.67424 173.793 7.13636C174.626 6.59091 175.702 6.31818 177.02 6.31818C178.202 6.31818 179.236 6.56061 180.122 7.04545C181.009 7.52273 181.698 8.25 182.19 9.22727C182.683 10.197 182.929 11.4242 182.929 12.9091V24H180.247V13.0909C180.247 11.7197 179.891 10.6515 179.179 9.88636C178.467 9.11364 177.49 8.72727 176.247 8.72727C175.391 8.72727 174.626 8.91288 173.952 9.28409C173.285 9.6553 172.759 10.197 172.372 10.9091C171.986 11.6212 171.793 12.4848 171.793 13.5ZM200.784 24L195.466 6.54545H198.284L202.057 19.9091H202.239L205.966 6.54545H208.83L212.511 19.8636H212.693L216.466 6.54545H219.284L213.966 24H211.33L207.511 10.5909H207.239L203.42 24H200.784ZM222.83 24V6.54545H225.511V24H222.83ZM224.193 3.63636C223.67 3.63636 223.22 3.45833 222.841 3.10227C222.47 2.74621 222.284 2.31818 222.284 1.81818C222.284 1.31818 222.47 0.890151 222.841 0.53409C223.22 0.17803 223.67 0 224.193 0C224.716 0 225.163 0.17803 225.534 0.53409C225.913 0.890151 226.102 1.31818 226.102 1.81818C226.102 2.31818 225.913 2.74621 225.534 3.10227C225.163 3.45833 224.716 3.63636 224.193 3.63636ZM233.105 0.727272V24H230.423V0.727272H233.105ZM240.699 0.727272V24H238.017V0.727272H240.699ZM259.747 24.4091C258.641 24.4091 257.637 24.2008 256.736 23.7841C255.834 23.3598 255.118 22.75 254.588 21.9545C254.058 21.1515 253.793 20.1818 253.793 19.0455C253.793 18.0455 253.99 17.2348 254.384 16.6136C254.777 15.9848 255.304 15.4924 255.963 15.1364C256.622 14.7803 257.349 14.5152 258.145 14.3409C258.948 14.1591 259.755 14.0152 260.565 13.9091C261.626 13.7727 262.486 13.6705 263.145 13.6023C263.812 13.5265 264.296 13.4015 264.599 13.2273C264.91 13.053 265.065 12.75 265.065 12.3182V12.2273C265.065 11.1061 264.759 10.2348 264.145 9.61364C263.539 8.99242 262.618 8.68182 261.384 8.68182C260.103 8.68182 259.099 8.96212 258.372 9.52273C257.645 10.0833 257.134 10.6818 256.838 11.3182L254.293 10.4091C254.747 9.34848 255.353 8.52273 256.111 7.93182C256.876 7.33333 257.709 6.91667 258.611 6.68182C259.52 6.43939 260.414 6.31818 261.293 6.31818C261.853 6.31818 262.497 6.38636 263.224 6.52273C263.959 6.65151 264.668 6.92045 265.349 7.32954C266.039 7.73864 266.611 8.35606 267.065 9.18182C267.52 10.0076 267.747 11.1136 267.747 12.5V24H265.065V21.6364H264.929C264.747 22.0152 264.444 22.4205 264.02 22.8523C263.596 23.2841 263.031 23.6515 262.327 23.9545C261.622 24.2576 260.762 24.4091 259.747 24.4091ZM260.156 22C261.217 22 262.111 21.7917 262.838 21.375C263.573 20.9583 264.126 20.4205 264.497 19.7614C264.876 19.1023 265.065 18.4091 265.065 17.6818V15.2273C264.952 15.3636 264.702 15.4886 264.315 15.6023C263.937 15.7083 263.497 15.803 262.997 15.8864C262.505 15.9621 262.024 16.0303 261.554 16.0909C261.092 16.1439 260.717 16.1894 260.429 16.2273C259.732 16.3182 259.08 16.4659 258.474 16.6705C257.876 16.8674 257.391 17.1667 257.02 17.5682C256.656 17.9621 256.474 18.5 256.474 19.1818C256.474 20.1136 256.819 20.8182 257.509 21.2955C258.205 21.7652 259.088 22 260.156 22ZM272.642 30.5455V6.54545H275.233V9.31818H275.551C275.748 9.01515 276.021 8.62879 276.369 8.15909C276.725 7.68182 277.233 7.25758 277.892 6.88636C278.559 6.50758 279.46 6.31818 280.597 6.31818C282.066 6.31818 283.362 6.68561 284.483 7.42045C285.604 8.1553 286.479 9.19697 287.108 10.5455C287.737 11.8939 288.051 13.4848 288.051 15.3182C288.051 17.1667 287.737 18.7689 287.108 20.125C286.479 21.4735 285.608 22.5189 284.494 23.2614C283.381 23.9962 282.097 24.3636 280.642 24.3636C279.521 24.3636 278.623 24.178 277.949 23.8068C277.275 23.428 276.756 23 276.392 22.5227C276.028 22.0379 275.748 21.6364 275.551 21.3182H275.324V30.5455H272.642ZM275.278 15.2727C275.278 16.5909 275.472 17.7538 275.858 18.7614C276.244 19.7614 276.809 20.5455 277.551 21.1136C278.294 21.6742 279.203 21.9545 280.278 21.9545C281.4 21.9545 282.335 21.6591 283.085 21.0682C283.843 20.4697 284.411 19.6667 284.79 18.6591C285.176 17.6439 285.369 16.5152 285.369 15.2727C285.369 14.0455 285.18 12.9394 284.801 11.9545C284.43 10.9621 283.866 10.178 283.108 9.60227C282.358 9.01894 281.415 8.72727 280.278 8.72727C279.188 8.72727 278.271 9.00379 277.528 9.55682C276.786 10.1023 276.225 10.8674 275.847 11.8523C275.468 12.8295 275.278 13.9697 275.278 15.2727ZM292.142 30.5455V6.54545H294.733V9.31818H295.051C295.248 9.01515 295.521 8.62879 295.869 8.15909C296.225 7.68182 296.733 7.25758 297.392 6.88636C298.059 6.50758 298.96 6.31818 300.097 6.31818C301.566 6.31818 302.862 6.68561 303.983 7.42045C305.104 8.1553 305.979 9.19697 306.608 10.5455C307.237 11.8939 307.551 13.4848 307.551 15.3182C307.551 17.1667 307.237 18.7689 306.608 20.125C305.979 21.4735 305.108 22.5189 303.994 23.2614C302.881 23.9962 301.597 24.3636 300.142 24.3636C299.021 24.3636 298.123 24.178 297.449 23.8068C296.775 23.428 296.256 23 295.892 22.5227C295.528 22.0379 295.248 21.6364 295.051 21.3182H294.824V30.5455H292.142ZM294.778 15.2727C294.778 16.5909 294.972 17.7538 295.358 18.7614C295.744 19.7614 296.309 20.5455 297.051 21.1136C297.794 21.6742 298.703 21.9545 299.778 21.9545C300.9 21.9545 301.835 21.6591 302.585 21.0682C303.343 20.4697 303.911 19.6667 304.29 18.6591C304.676 17.6439 304.869 16.5152 304.869 15.2727C304.869 14.0455 304.68 12.9394 304.301 11.9545C303.93 10.9621 303.366 10.178 302.608 9.60227C301.858 9.01894 300.915 8.72727 299.778 8.72727C298.688 8.72727 297.771 9.00379 297.028 9.55682C296.286 10.1023 295.725 10.8674 295.347 11.8523C294.968 12.8295 294.778 13.9697 294.778 15.2727ZM318.96 24.3636C317.278 24.3636 315.828 23.9924 314.608 23.25C313.396 22.5 312.46 21.4545 311.801 20.1136C311.15 18.7652 310.824 17.197 310.824 15.4091C310.824 13.6212 311.15 12.0455 311.801 10.6818C312.46 9.31061 313.377 8.24242 314.551 7.47727C315.733 6.70455 317.112 6.31818 318.688 6.31818C319.597 6.31818 320.494 6.4697 321.381 6.77273C322.267 7.07576 323.074 7.56818 323.801 8.25C324.528 8.92424 325.108 9.81818 325.54 10.9318C325.972 12.0455 326.188 13.4167 326.188 15.0455V16.1818H312.733V13.8636H323.46C323.46 12.8788 323.263 12 322.869 11.2273C322.483 10.4545 321.93 9.8447 321.21 9.39773C320.498 8.95076 319.657 8.72727 318.688 8.72727C317.619 8.72727 316.695 8.99242 315.915 9.52273C315.142 10.0455 314.547 10.7273 314.131 11.5682C313.714 12.4091 313.506 13.3106 313.506 14.2727V15.8182C313.506 17.1364 313.733 18.2538 314.188 19.1705C314.65 20.0795 315.29 20.7727 316.108 21.25C316.926 21.7197 317.877 21.9545 318.96 21.9545C319.665 21.9545 320.301 21.8561 320.869 21.6591C321.445 21.4545 321.941 21.1515 322.358 20.75C322.775 20.3409 323.097 19.8333 323.324 19.2273L325.915 19.9545C325.642 20.8333 325.184 21.6061 324.54 22.2727C323.896 22.9318 323.1 23.447 322.153 23.8182C321.206 24.1818 320.142 24.3636 318.96 24.3636ZM335.403 24.4091C334.297 24.4091 333.294 24.2008 332.392 23.7841C331.491 23.3598 330.775 22.75 330.244 21.9545C329.714 21.1515 329.449 20.1818 329.449 19.0455C329.449 18.0455 329.646 17.2348 330.04 16.6136C330.434 15.9848 330.96 15.4924 331.619 15.1364C332.278 14.7803 333.006 14.5152 333.801 14.3409C334.604 14.1591 335.411 14.0152 336.222 13.9091C337.282 13.7727 338.142 13.6705 338.801 13.6023C339.468 13.5265 339.953 13.4015 340.256 13.2273C340.566 13.053 340.722 12.75 340.722 12.3182V12.2273C340.722 11.1061 340.415 10.2348 339.801 9.61364C339.195 8.99242 338.275 8.68182 337.04 8.68182C335.759 8.68182 334.756 8.96212 334.028 9.52273C333.301 10.0833 332.79 10.6818 332.494 11.3182L329.949 10.4091C330.403 9.34848 331.009 8.52273 331.767 7.93182C332.532 7.33333 333.366 6.91667 334.267 6.68182C335.176 6.43939 336.07 6.31818 336.949 6.31818C337.509 6.31818 338.153 6.38636 338.881 6.52273C339.616 6.65151 340.324 6.92045 341.006 7.32954C341.695 7.73864 342.267 8.35606 342.722 9.18182C343.176 10.0076 343.403 11.1136 343.403 12.5V24H340.722V21.6364H340.585C340.403 22.0152 340.1 22.4205 339.676 22.8523C339.252 23.2841 338.688 23.6515 337.983 23.9545C337.278 24.2576 336.419 24.4091 335.403 24.4091ZM335.812 22C336.873 22 337.767 21.7917 338.494 21.375C339.229 20.9583 339.782 20.4205 340.153 19.7614C340.532 19.1023 340.722 18.4091 340.722 17.6818V15.2273C340.608 15.3636 340.358 15.4886 339.972 15.6023C339.593 15.7083 339.153 15.803 338.653 15.8864C338.161 15.9621 337.68 16.0303 337.21 16.0909C336.748 16.1439 336.373 16.1894 336.085 16.2273C335.388 16.3182 334.737 16.4659 334.131 16.6705C333.532 16.8674 333.047 17.1667 332.676 17.5682C332.313 17.9621 332.131 18.5 332.131 19.1818C332.131 20.1136 332.475 20.8182 333.165 21.2955C333.862 21.7652 334.744 22 335.812 22ZM348.298 24V6.54545H350.889V9.18182H351.071C351.389 8.31818 351.965 7.61742 352.798 7.07954C353.632 6.54167 354.571 6.27273 355.616 6.27273C355.813 6.27273 356.06 6.27651 356.355 6.28409C356.651 6.29167 356.874 6.30303 357.026 6.31818V9.04545C356.935 9.02273 356.726 8.98864 356.401 8.94318C356.082 8.89015 355.745 8.86364 355.389 8.86364C354.541 8.86364 353.783 9.04167 353.116 9.39773C352.457 9.74621 351.935 10.2311 351.548 10.8523C351.17 11.4659 350.98 12.1667 350.98 12.9545V24H348.298ZM371.886 13.5V24H369.205V0.727272H371.886V9.27273H372.114C372.523 8.37121 373.136 7.6553 373.955 7.125C374.78 6.58712 375.879 6.31818 377.25 6.31818C378.439 6.31818 379.481 6.55682 380.375 7.03409C381.269 7.50379 381.962 8.22727 382.455 9.20455C382.955 10.1742 383.205 11.4091 383.205 12.9091V24H380.523V13.0909C380.523 11.7045 380.163 10.6326 379.443 9.875C378.731 9.10985 377.742 8.72727 376.477 8.72727C375.598 8.72727 374.811 8.91288 374.114 9.28409C373.424 9.6553 372.879 10.197 372.477 10.9091C372.083 11.6212 371.886 12.4848 371.886 13.5ZM395.429 24.3636C393.747 24.3636 392.296 23.9924 391.077 23.25C389.865 22.5 388.929 21.4545 388.27 20.1136C387.618 18.7652 387.293 17.197 387.293 15.4091C387.293 13.6212 387.618 12.0455 388.27 10.6818C388.929 9.31061 389.846 8.24242 391.02 7.47727C392.202 6.70455 393.58 6.31818 395.156 6.31818C396.065 6.31818 396.963 6.4697 397.849 6.77273C398.736 7.07576 399.543 7.56818 400.27 8.25C400.997 8.92424 401.577 9.81818 402.009 10.9318C402.44 12.0455 402.656 13.4167 402.656 15.0455V16.1818H389.202V13.8636H399.929C399.929 12.8788 399.732 12 399.338 11.2273C398.952 10.4545 398.399 9.8447 397.679 9.39773C396.967 8.95076 396.126 8.72727 395.156 8.72727C394.088 8.72727 393.164 8.99242 392.384 9.52273C391.611 10.0455 391.016 10.7273 390.599 11.5682C390.183 12.4091 389.974 13.3106 389.974 14.2727V15.8182C389.974 17.1364 390.202 18.2538 390.656 19.1705C391.118 20.0795 391.759 20.7727 392.577 21.25C393.395 21.7197 394.346 21.9545 395.429 21.9545C396.134 21.9545 396.77 21.8561 397.338 21.6591C397.914 21.4545 398.41 21.1515 398.827 20.75C399.243 20.3409 399.565 19.8333 399.793 19.2273L402.384 19.9545C402.111 20.8333 401.652 21.6061 401.009 22.2727C400.365 22.9318 399.569 23.447 398.622 23.8182C397.675 24.1818 396.611 24.3636 395.429 24.3636ZM406.736 24V6.54545H409.327V9.18182H409.509C409.827 8.31818 410.402 7.61742 411.236 7.07954C412.069 6.54167 413.009 6.27273 414.054 6.27273C414.251 6.27273 414.497 6.27651 414.793 6.28409C415.088 6.29167 415.312 6.30303 415.463 6.31818V9.04545C415.372 9.02273 415.164 8.98864 414.838 8.94318C414.52 8.89015 414.183 8.86364 413.827 8.86364C412.978 8.86364 412.221 9.04167 411.554 9.39773C410.895 9.74621 410.372 10.2311 409.986 10.8523C409.607 11.4659 409.418 12.1667 409.418 12.9545V24H406.736ZM425.429 24.3636C423.747 24.3636 422.296 23.9924 421.077 23.25C419.865 22.5 418.929 21.4545 418.27 20.1136C417.618 18.7652 417.293 17.197 417.293 15.4091C417.293 13.6212 417.618 12.0455 418.27 10.6818C418.929 9.31061 419.846 8.24242 421.02 7.47727C422.202 6.70455 423.58 6.31818 425.156 6.31818C426.065 6.31818 426.963 6.4697 427.849 6.77273C428.736 7.07576 429.543 7.56818 430.27 8.25C430.997 8.92424 431.577 9.81818 432.009 10.9318C432.44 12.0455 432.656 13.4167 432.656 15.0455V16.1818H419.202V13.8636H429.929C429.929 12.8788 429.732 12 429.338 11.2273C428.952 10.4545 428.399 9.8447 427.679 9.39773C426.967 8.95076 426.126 8.72727 425.156 8.72727C424.088 8.72727 423.164 8.99242 422.384 9.52273C421.611 10.0455 421.016 10.7273 420.599 11.5682C420.183 12.4091 419.974 13.3106 419.974 14.2727V15.8182C419.974 17.1364 420.202 18.2538 420.656 19.1705C421.118 20.0795 421.759 20.7727 422.577 21.25C423.395 21.7197 424.346 21.9545 425.429 21.9545C426.134 21.9545 426.77 21.8561 427.338 21.6591C427.914 21.4545 428.41 21.1515 428.827 20.75C429.243 20.3409 429.565 19.8333 429.793 19.2273L432.384 19.9545C432.111 20.8333 431.652 21.6061 431.009 22.2727C430.365 22.9318 429.569 23.447 428.622 23.8182C427.675 24.1818 426.611 24.3636 425.429 24.3636ZM438.69 24.1818C438.13 24.1818 437.649 23.9811 437.247 23.5795C436.846 23.178 436.645 22.697 436.645 22.1364C436.645 21.5758 436.846 21.0947 437.247 20.6932C437.649 20.2917 438.13 20.0909 438.69 20.0909C439.251 20.0909 439.732 20.2917 440.134 20.6932C440.535 21.0947 440.736 21.5758 440.736 22.1364C440.736 22.5076 440.641 22.8485 440.452 23.1591C440.27 23.4697 440.024 23.7197 439.713 23.9091C439.41 24.0909 439.069 24.1818 438.69 24.1818ZM447.503 24.1818C446.942 24.1818 446.461 23.9811 446.06 23.5795C445.658 23.178 445.457 22.697 445.457 22.1364C445.457 21.5758 445.658 21.0947 446.06 20.6932C446.461 20.2917 446.942 20.0909 447.503 20.0909C448.063 20.0909 448.545 20.2917 448.946 20.6932C449.348 21.0947 449.548 21.5758 449.548 22.1364C449.548 22.5076 449.454 22.8485 449.264 23.1591C449.082 23.4697 448.836 23.7197 448.526 23.9091C448.223 24.0909 447.882 24.1818 447.503 24.1818ZM456.315 24.1818C455.755 24.1818 455.274 23.9811 454.872 23.5795C454.471 23.178 454.27 22.697 454.27 22.1364C454.27 21.5758 454.471 21.0947 454.872 20.6932C455.274 20.2917 455.755 20.0909 456.315 20.0909C456.876 20.0909 457.357 20.2917 457.759 20.6932C458.16 21.0947 458.361 21.5758 458.361 22.1364C458.361 22.5076 458.266 22.8485 458.077 23.1591C457.895 23.4697 457.649 23.7197 457.338 23.9091C457.035 24.0909 456.694 24.1818 456.315 24.1818Z" fill="black" fill-opacity="0.46"/>
</svg>
